<?xml version="1.0" encoding="utf-8"?>
<!-- Generator: Adobe Illustrator 24.2.1, SVG Export Plug-In . SVG Version: 6.00 Build 0)  -->
<svg version="1.1" id="Layer_1" xmlns="http://www.w3.org/2000/svg" xmlns:xlink="http://www.w3.org/1999/xlink" x="0px" y="0px"
	 width="280.875px" height="321px" viewBox="0 0 280.875 321" enable-background="new 0 0 280.875 321" xml:space="preserve">
<g>
	<g id="XMLID_1_">
		<g>
			<path fill="#010044" d="M140.438,300.938H160.5v-20.062h-20.062h-20.062v20.062H140.438z M220.688,321h-20.062h-20.062H160.5
				h-20.062h-20.062h-20.062H80.25H60.188H40.125H20.062v-20.062H0v-20.062v-20.062V240.75v-20.062h20.062v-20.062v-20.062h20.062
				V160.5H20.062v-20.062v-20.062v-20.062V80.25V60.188V40.125h20.062V20.062h20.062V0H80.25v20.062h20.062v20.062h20.062v20.062
				V80.25v20.062v20.062v20.062V160.5h20.062H160.5v-20.062v-20.062v-20.062V80.25V60.188V40.125h20.062V20.062h20.062V0h20.062
				v20.062h20.062v20.062h20.062v20.062V80.25v20.062v20.062v20.062V160.5h-20.06v20.062h20.062v20.062v20.062h20.062v20.062v20.062
				v20.062v20.062h-20.062V321H240.75H220.688z M220.688,260.812V240.75v-20.062h-20.062v20.062v20.062H220.688z M80.25,260.812
				V240.75v-20.062H60.188v20.062v20.062H80.25z"/>
		</g>
	</g>
</g>
</svg>
