<svg width="256" height="256" xmlns="http://www.w3.org/2000/svg" preserveAspectRatio="xMidYMid" version="1.1">

 <g>
  <title>Layer 1</title>
  <g id="svg_1">
   <path stroke="#0000bf" id="svg_2" fill="#0fffff" d="m179.2,230.4l76.8,0l-122.88,-102.4c-1.687,37.193 14.687,73.58 46.08,102.4"/>
   <path stroke="#0000bf" id="svg_3" fill="#0fffff" d="m25.6,179.2l0,76.8l102.4,-122.88c-1.746,-0.079 -3.483,-0.118 -5.225,-0.118c-35.36,0.002 -69.708,16.279 -97.175,46.198"/>
   <path stroke="#0000bf" id="svg_4" fill="#0fffff" d="m0,25.6l122.88,102.4c1.687,-37.192 -14.687,-73.58 -46.08,-102.4l-76.8,0z"/>
   <path stroke="#0000bf" id="svg_5" fill="#0fffff" d="m230.4,0l-102.4,122.879c37.193,1.688 73.58,-14.687 102.4,-46.08l0,-76.799z"/>
   <path stroke="#0000bf" id="svg_6" fill="#0fffff" d="m128,128c-11.479,29.755 -9.745,60.086 5.12,89.601c15.36,7.679 28.16,12.799 46.08,12.799c-31.393,-28.82 -47.767,-65.207 -46.08,-102.4l-5.12,0z"/>
   <path stroke="#0000bf" id="svg_7" fill="#0fffff" d="m38.4,133.12c-7.679,15.361 -12.8,28.16 -12.8,46.08c28.819,-31.393 65.207,-47.766 102.4,-46.08l0,-5.12c-12.944,-4.993 -25.994,-7.486 -39.04,-7.486c-16.946,0.001 -33.884,4.207 -50.56,12.606"/>
   <path stroke="#0000bf" id="svg_8" fill="#0fffff" d="m122.88,128l5.12,0c11.478,-29.755 9.745,-60.087 -5.12,-89.6c-15.36,-7.68 -28.159,-12.8 -46.08,-12.8c31.393,28.82 47.767,65.208 46.08,102.4"/>
   <path stroke="#0000bf" id="svg_9" fill="#0fffff" d="m128,122.879l0,5.121c29.755,11.478 60.086,9.744 89.6,-5.121c7.68,-15.358 12.8,-28.158 12.8,-46.08c-28.82,31.393 -65.207,47.768 -102.4,46.08"/>
   <path stroke="#0000bf" id="svg_10" fill="#0fffff" d="m71.68,166.4l61.44,51.201c-14.865,-29.515 -16.599,-59.846 -5.12,-89.601c-1.776,-0.592 -3.858,-0.876 -6.158,-0.876c-17.599,0.001 -47.898,16.635 -50.162,39.276"/>
   <path stroke="#0000bf" id="svg_11" fill="#0fffff" d="m38.4,133.12c29.514,-14.865 59.845,-16.598 89.6,-5.12c5.12,-15.359 -12.8,-53.76 -38.4,-56.32l-51.2,61.44z"/>
   <path stroke="#0000bf" id="svg_12" fill="#0fffff" d="m128,128c15.36,5.12 53.759,-12.8 56.32,-38.4l-61.44,-51.2c14.865,29.513 16.598,59.845 5.12,89.6"/>
   <path stroke="#0000bf" id="svg_13" fill="#0fffff" d="m128,128c-5.12,15.361 12.8,53.76 38.4,56.32l51.2,-61.441c-29.514,14.865 -59.845,16.599 -89.6,5.121"/>
   <path stroke="#0000bf" id="svg_14" fill="#0fffff" d="m127.9998,121.6004c3.535,0 6.4,2.865 6.4,6.399c0,3.536 -2.865,6.401 -6.4,6.401c-3.534,0 -6.399,-2.865 -6.399,-6.401c0,-3.534 2.865,-6.399 6.399,-6.399"/>
  </g>
 </g>
</svg>
