<svg width="256" height="256" xmlns="http://www.w3.org/2000/svg" preserveAspectRatio="xMidYMid" version="1.1">

 <g>
  <title>Layer 1</title>
  <path id="svg_2" fill-rule="nonzero" fill="#00f8df" d="m72.39205,55.43841c0,3.13642 0.33908,5.67947 0.93245,7.54437c0.67815,1.8649 1.52583,3.89934 2.71259,6.10331c0.42384,0.67815 0.59337,1.35629 0.59337,1.94967c0,0.84768 -0.50861,1.69537 -1.61059,2.54305l-5.3404,3.56026c-0.76291,0.50861 -1.52583,0.76292 -2.20397,0.76292c-0.84769,0 -1.69537,-0.42384 -2.54305,-1.18676c-1.18675,-1.27152 -2.20397,-2.62781 -3.05166,-3.9841c-0.84768,-1.44106 -1.69536,-3.05166 -2.62781,-5.00133c-6.61192,7.79868 -14.91921,11.69801 -24.92185,11.69801c-7.12053,0 -12.8,-2.03443 -16.95365,-6.10331c-4.15364,-4.06887 -6.27284,-9.49404 -6.27284,-16.27549c0,-7.2053 2.54304,-13.05431 7.7139,-17.46226c5.17086,-4.40794 12.03709,-6.61192 20.76821,-6.61192c2.88212,0 5.84901,0.25431 8.98544,0.67815c3.13642,0.42384 6.35761,1.10199 9.74834,1.8649l0,-6.18808c0,-6.44238 -1.35629,-10.9351 -3.98411,-13.56291c-2.71258,-2.62782 -7.29006,-3.89934 -13.81721,-3.89934c-2.96689,0 -6.01855,0.33907 -9.15497,1.10199c-3.13643,0.76291 -6.18808,1.69536 -9.15497,2.88212c-1.35629,0.59337 -2.37351,0.93245 -2.96689,1.10198c-0.59337,0.16954 -1.01721,0.25431 -1.35629,0.25431c-1.18675,0 -1.78013,-0.84769 -1.78013,-2.62782l0,-4.15364c0,-1.35629 0.16954,-2.37351 0.59338,-2.96689c0.42384,-0.59337 1.18675,-1.18675 2.37351,-1.78013c2.96689,-1.52583 6.52715,-2.79735 10.68079,-3.81457c4.15364,-1.10199 8.56159,-1.6106 13.22384,-1.6106c10.08742,0 17.46226,2.28875 22.20928,6.86623c4.66225,4.57748 7.03576,11.52848 7.03576,20.85298l0,27.4649l0.16953,0zm-34.41589,12.88477c2.79735,0 5.67947,-0.50861 8.73112,-1.52583c3.05166,-1.01722 5.76424,-2.88212 8.05298,-5.42516c1.3563,-1.6106 2.37351,-3.39073 2.88212,-5.42517c0.50861,-2.03444 0.84769,-4.49272 0.84769,-7.37483l0,-3.56027c-2.45828,-0.59338 -5.0861,-1.10199 -7.79868,-1.44106c-2.71258,-0.33907 -5.3404,-0.50861 -7.96821,-0.50861c-5.67947,0 -9.83311,1.10199 -12.63046,3.39073c-2.79736,2.28874 -4.15365,5.50993 -4.15365,9.74834c0,3.98411 1.01722,6.951 3.13643,8.98544c2.03443,2.1192 5.00132,3.13642 8.90066,3.13642zm68.06887,9.15497c-1.52583,0 -2.54304,-0.25431 -3.22119,-0.84769c-0.67814,-0.50861 -1.27152,-1.69536 -1.78013,-3.30596l-19.92053,-65.52582c-0.50861,-1.69537 -0.76292,-2.79736 -0.76292,-3.39073c0,-1.35629 0.67815,-2.11921 2.03444,-2.11921l8.30729,0c1.61059,0 2.71258,0.25431 3.30596,0.84768c0.67814,0.50861 1.18675,1.69537 1.69536,3.30596l14.24106,56.11656l13.22384,-56.11656c0.42384,-1.69536 0.93245,-2.79735 1.6106,-3.30596c0.67814,-0.50861 1.8649,-0.84768 3.39073,-0.84768l6.78145,0c1.6106,0 2.71259,0.25431 3.39073,0.84768c0.67815,0.50861 1.27153,1.69537 1.6106,3.30596l13.39338,56.79471l14.6649,-56.79471c0.5086,-1.69536 1.10198,-2.79735 1.69536,-3.30596c0.67815,-0.50861 1.78013,-0.84768 3.30596,-0.84768l7.88344,0c1.3563,0 2.11921,0.67815 2.11921,2.11921c0,0.42384 -0.08477,0.84768 -0.16954,1.35629c-0.08476,0.50861 -0.2543,1.18675 -0.59337,2.1192l-20.42914,65.52583c-0.50861,1.69537 -1.10199,2.79735 -1.78014,3.30596c-0.67814,0.50861 -1.78013,0.84768 -3.22119,0.84768l-7.29006,0c-1.6106,0 -2.71259,-0.2543 -3.39073,-0.84768c-0.67815,-0.59338 -1.27153,-1.69536 -1.6106,-3.39073l-13.13907,-54.67549l-13.05431,54.59073c-0.42384,1.69536 -0.93245,2.79735 -1.61059,3.39072c-0.67815,0.59338 -1.8649,0.84769 -3.39073,0.84769l-7.29007,0zm108.92715,2.28874c-4.40794,0 -8.81589,-0.50861 -13.0543,-1.52583c-4.23841,-1.01722 -7.54437,-2.11921 -9.74834,-3.39073c-1.3563,-0.76291 -2.28874,-1.61059 -2.62782,-2.37351c-0.33907,-0.76291 -0.50861,-1.61059 -0.50861,-2.37351l0,-4.32318c0,-1.78013 0.67815,-2.62781 1.94967,-2.62781c0.50861,0 1.01722,0.08477 1.52583,0.2543c0.50861,0.16954 1.27152,0.50861 2.1192,0.84768c2.88212,1.27153 6.01855,2.28875 9.32451,2.96689c3.39073,0.67815 6.69669,1.01722 10.08742,1.01722c5.34039,0 9.49403,-0.93245 12.37615,-2.79735c2.88212,-1.8649 4.40795,-4.57748 4.40795,-8.05298c0,-2.37351 -0.76291,-4.32318 -2.28874,-5.93378c-1.52583,-1.61059 -4.40795,-3.05165 -8.56159,-4.40794l-12.29139,-3.81457c-6.18808,-1.94967 -10.76556,-4.83179 -13.56292,-8.64636c-2.79735,-3.7298 -4.2384,-7.88344 -4.2384,-12.29139c0,-3.56027 0.76291,-6.69669 2.28874,-9.40927c1.52582,-2.71258 3.56026,-5.08609 6.10331,-6.951c2.54304,-1.94966 5.42516,-3.39072 8.81589,-4.40794c3.39073,-1.01722 6.951,-1.44106 10.6808,-1.44106c1.8649,0 3.81457,0.08477 5.67947,0.33907c1.94966,0.25431 3.7298,0.59338 5.50993,0.93245c1.69536,0.42384 3.30596,0.84768 4.83179,1.35629c1.52583,0.50861 2.71258,1.01722 3.56026,1.52583c1.18676,0.67815 2.03444,1.35629 2.54305,2.11921c0.50861,0.67814 0.76291,1.61059 0.76291,2.79735l0,3.9841c0,1.78014 -0.67814,2.71259 -1.94966,2.71259c-0.67815,0 -1.78014,-0.33908 -3.2212,-1.01722c-4.83179,-2.20398 -10.25695,-3.30596 -16.27549,-3.30596c-4.83179,0 -8.64636,0.76291 -11.27418,2.37351c-2.62781,1.61059 -3.9841,4.06887 -3.9841,7.54437c0,2.37351 0.84768,4.40794 2.54304,6.01854c1.69537,1.6106 4.83179,3.22119 9.32451,4.66225l12.03708,3.81457c6.10331,1.94967 10.51126,4.66225 13.13908,8.13775c2.62781,3.4755 3.89933,7.4596 3.89933,11.86755c0,3.64503 -0.76291,6.95099 -2.20397,9.83311c-1.52583,2.88212 -3.56026,5.42517 -6.18808,7.45961c-2.62781,2.1192 -5.76424,3.64503 -9.40927,4.74702c-3.81457,1.18675 -7.79868,1.78013 -12.12186,1.78013z"/>
  <path id="svg_3" fill="#00f8df" d="m230.99338,120.96424c-27.88874,20.59867 -68.40795,31.53377 -103.24769,31.53377c-48.82648,0 -92.82119,-18.05563 -126.05033,-48.06357c-2.62781,-2.37351 -0.2543,-5.5947 2.88212,-3.7298c35.94173,20.85298 80.2755,33.48344 126.1351,33.48344c30.9404,0 64.93245,-6.44239 96.21192,-19.66623c4.66226,-2.1192 8.64636,3.05166 4.06888,6.44239zm11.61324,-13.22384c-3.56026,-4.57749 -23.56556,-2.20398 -32.63576,-1.10199c-2.71258,0.33907 -3.13642,-2.03444 -0.67815,-3.81457c15.93643,-11.1894 42.12981,-7.96821 45.18146,-4.23841c3.05166,3.81457 -0.84768,30.00795 -15.76688,42.55364c-2.28875,1.94967 -4.49272,0.93245 -3.4755,-1.61059c3.39073,-8.39206 10.9351,-27.29537 7.37483,-31.78808z"/>
 </g>
</svg>
