<?xml version="1.0" encoding="utf-8"?>
<!-- Generator: Adobe Illustrator 24.2.1, SVG Export Plug-In . SVG Version: 6.00 Build 0)  -->
<svg version="1.1" id="Layer_1" xmlns="http://www.w3.org/2000/svg" xmlns:xlink="http://www.w3.org/1999/xlink" x="0px" y="0px"
	 width="122px" height="122px" viewBox="0 0 122 122" style="enable-background:new 0 0 122 122;" xml:space="preserve">
<style type="text/css">
	.st0{fill:#09C4DD;}
</style>
<path class="st0" d="M117.1,43.3c0-0.1,0-0.1,0-0.2c0-0.1,0-0.3-0.1-0.4c0-0.1-0.1-0.2-0.1-0.2c0-0.1-0.1-0.2-0.1-0.4
	c0-0.1-0.1-0.2-0.1-0.2c-0.1-0.1-0.1-0.2-0.2-0.3c0-0.1-0.1-0.2-0.1-0.2c-0.1-0.1-0.1-0.2-0.2-0.3c-0.1-0.1-0.1-0.1-0.2-0.2
	c-0.1-0.1-0.2-0.2-0.2-0.3c-0.1-0.1-0.1-0.1-0.2-0.2c-0.1-0.1-0.2-0.2-0.3-0.2c-0.1-0.1-0.1-0.1-0.2-0.2c0,0-0.1,0-0.1-0.1L63.7,5.7
	c-1.6-1.1-3.7-1.1-5.4,0L7,39.9c0,0-0.1,0-0.1,0.1c-0.1,0.1-0.1,0.1-0.2,0.2c-0.1,0.1-0.2,0.2-0.3,0.2c-0.1,0.1-0.1,0.1-0.2,0.2
	c-0.1,0.1-0.2,0.2-0.2,0.3C6,40.9,5.9,40.9,5.9,41c-0.1,0.1-0.1,0.2-0.2,0.3c0,0.1-0.1,0.1-0.1,0.2c-0.1,0.1-0.1,0.2-0.2,0.3
	c0,0.1-0.1,0.2-0.1,0.2c0,0.1-0.1,0.2-0.1,0.4c0,0.1-0.1,0.2-0.1,0.2C5,42.8,5,42.9,5,43.1c0,0.1,0,0.1,0,0.2c0,0.2,0,0.4,0,0.6
	v34.2c0,0.2,0,0.4,0,0.6c0,0.1,0,0.1,0,0.2c0,0.1,0,0.3,0.1,0.4c0,0.1,0.1,0.2,0.1,0.2c0,0.1,0.1,0.2,0.1,0.4c0,0.1,0.1,0.2,0.1,0.2
	c0.1,0.1,0.1,0.2,0.2,0.3c0,0.1,0.1,0.1,0.1,0.2c0.1,0.1,0.1,0.2,0.2,0.3C5.9,81.1,6,81.1,6,81.2c0.1,0.1,0.2,0.2,0.2,0.3
	c0.1,0.1,0.1,0.1,0.2,0.2c0.1,0.1,0.2,0.2,0.3,0.2c0.1,0.1,0.1,0.1,0.2,0.2c0,0,0.1,0,0.1,0.1l51.3,34.2c0.8,0.5,1.7,0.8,2.7,0.8
	c0.9,0,1.9-0.3,2.7-0.8L115,82.1c0,0,0.1,0,0.1-0.1c0.1-0.1,0.1-0.1,0.2-0.2c0.1-0.1,0.2-0.2,0.3-0.2c0.1-0.1,0.1-0.1,0.2-0.2
	c0.1-0.1,0.2-0.2,0.2-0.3c0.1-0.1,0.1-0.1,0.2-0.2c0.1-0.1,0.1-0.2,0.2-0.3c0-0.1,0.1-0.1,0.1-0.2c0.1-0.1,0.1-0.2,0.2-0.3
	c0-0.1,0.1-0.2,0.1-0.2c0-0.1,0.1-0.2,0.1-0.4c0-0.1,0.1-0.2,0.1-0.2c0-0.1,0.1-0.3,0.1-0.4c0-0.1,0-0.1,0-0.2c0-0.2,0-0.4,0-0.6
	V43.9C117.1,43.7,117.1,43.5,117.1,43.3z M65.8,18.7l37.8,25.2L86.7,55.2l-20.9-14V18.7z M56.2,18.7v22.5l-20.9,14L18.4,43.9
	L56.2,18.7z M14.5,52.9L26.6,61l-12.1,8.1V52.9z M56.2,103.3L18.4,78.1l16.9-11.3l20.9,14V103.3z M61,72.4L43.9,61L61,49.6L78.1,61
	L61,72.4z M65.8,103.3V80.8l20.9-14l16.9,11.3L65.8,103.3z M107.5,69.1L95.4,61l12.1-8.1V69.1z"/>
</svg>
