<?xml version="1.0" encoding="utf-8"?>
<!-- Generator: Adobe Illustrator 24.2.1, SVG Export Plug-In . SVG Version: 6.00 Build 0)  -->
<svg version="1.1" id="Layer_1" xmlns="http://www.w3.org/2000/svg" xmlns:xlink="http://www.w3.org/1999/xlink" x="0px" y="0px"
	 width="125.37px" height="72.767px" viewBox="0 0 125.37 72.767" enable-background="new 0 0 125.37 72.767" xml:space="preserve">
<g id="original">
	<path fill="#00F8DF" d="M125.37,70.839c-4.56,1.16-7.38,0.05-9.91-3.75c-5.68-8.51-11.95-16.63-18-24.9
		c-0.78-1.07-1.59-2.12-2.6-3.45c-7.16,9.66-14.31,18.86-21.02,28.43c-2.4,3.42-4.92,4.91-9.4,3.7l26.92-36.13L66.3,2.109
		c4.31-0.84,7.29-0.41,9.93,3.45c5.83,8.52,12.26,16.63,18.67,25.21c6.45-8.55,12.8-16.67,18.8-25.11c2.41-3.42,5-4.72,9.33-3.46
		c-3.28,4.35-6.49,8.63-9.72,12.88c-4.36,5.73-8.64,11.53-13.16,17.14c-1.61,2-1.35,3.3,0.09,5.19
		C108.6,48.399,116.86,59.499,125.37,70.839z"/>
	<path fill="#00F8DF" d="M0.03,34.139c0.72-3.61,1.2-7.29,2.2-10.83c6-21.43,30.6-30.34,47.5-17.06
		c9.9,7.79,12.36,18.77,11.87,31.15H5.8c-0.84,22.21,15.15,35.62,35.53,28.78c7.15-2.4,11.36-8,13.47-15
		c1.07-3.51,2.84-4.06,6.14-3.06c-1.69,8.76-5.52,16.08-13.52,20.66c-12,6.86-29.13,4.64-38.14-4.89c-5.32-5.6-7.58-12.57-8.58-20.1
		c-0.15-1.2-0.46-2.38-0.7-3.57C0.02,38.192,0.03,36.166,0.03,34.139z M5.9,32.649h50.43C56,16.589,46,5.179,32.33,5.079
		C17.33,4.959,6.55,16.099,5.9,32.649z"/>
</g>
</svg>
