<?xml version="1.0" encoding="utf-8"?>
<!-- Generator: Adobe Illustrator 24.2.1, SVG Export Plug-In . SVG Version: 6.00 Build 0)  -->
<svg version="1.1" id="Layer_1" xmlns="http://www.w3.org/2000/svg" xmlns:xlink="http://www.w3.org/1999/xlink" x="0px" y="0px"
	 width="126.236px" height="126.234px" viewBox="0 0 126.236 126.234" enable-background="new 0 0 126.236 126.234"
	 xml:space="preserve">
<path fill="#00F8DF" d="M123.854,57.494L68.738,2.381c-3.172-3.174-8.32-3.174-11.497,0L45.797,13.826l14.518,14.518
	c3.375-1.139,7.243-0.375,9.932,2.314c2.703,2.706,3.461,6.607,2.294,9.993l13.992,13.993c3.385-1.167,7.292-0.413,9.994,2.295
	c3.78,3.777,3.78,9.9,0,13.679c-3.78,3.78-9.901,3.78-13.683,0c-2.842-2.844-3.545-7.019-2.105-10.521L67.691,47.049l-0.002,34.341
	c0.922,0.455,1.791,1.063,2.559,1.828c3.778,3.777,3.778,9.898,0,13.683c-3.779,3.777-9.904,3.777-13.679,0
	c-3.778-3.784-3.778-9.905,0-13.683c0.934-0.933,2.014-1.638,3.167-2.11V46.45c-1.153-0.472-2.231-1.172-3.167-2.111
	c-2.862-2.86-3.551-7.06-2.083-10.576L40.173,19.45L2.381,57.24c-3.175,3.177-3.175,8.325,0,11.5l55.117,55.114
	c3.174,3.174,8.32,3.174,11.499,0l54.858-54.858C127.029,65.819,127.029,60.668,123.854,57.494z"/>
</svg>
