<?xml version="1.0" encoding="utf-8"?>
<!-- Generator: Adobe Illustrator 24.2.1, SVG Export Plug-In . SVG Version: 6.00 Build 0)  -->
<svg version="1.1" id="Layer_1" xmlns="http://www.w3.org/2000/svg" xmlns:xlink="http://www.w3.org/1999/xlink" x="0px" y="0px"
	 width="109.936px" height="124.494px" viewBox="0 0 109.936 124.494" enable-background="new 0 0 109.936 124.494"
	 xml:space="preserve">
<path fill="#00F8DF" d="M0,0l10.005,112.093l44.896,12.401l45.02-12.387L109.936,0C109.936,0,0,0,0,0z M89.126,26.539l-0.627,7.172
	L88.223,37H35.558l1.257,14h50.156l-0.336,3.471L83.402,90.59l-0.238,2.27l-28.196,7.749v0.002l-0.034,0.018l-28.177-7.423
	L24.844,72h13.815l0.979,10.919L54.925,87h0.043v-0.546l15.355-3.875L71.927,65H24.229l-3.383-38.117L20.517,23h68.939
	C89.456,23,89.126,26.539,89.126,26.539z"/>
</svg>
