<?xml version="1.0" encoding="utf-8"?>
<!-- Generator: Adobe Illustrator 24.2.1, SVG Export Plug-In . SVG Version: 6.00 Build 0)  -->
<svg version="1.1" id="Layer_1" xmlns="http://www.w3.org/2000/svg" xmlns:xlink="http://www.w3.org/1999/xlink" x="0px" y="0px"
	 width="126.017px" height="126px" viewBox="0 0 126.017 126" enable-background="new 0 0 126.017 126" xml:space="preserve">
<path fill-rule="evenodd" clip-rule="evenodd" fill="#00F8DF" d="M46.972,68h15.371c-2.646-9-5.252-17.32-7.816-25.776
	C52.039,50.71,49.515,59,46.972,68z M123.129,0H1.89c-2.186,0-1.873,0.476-1.873,2.585v121.394c0,2.107-0.313,2.021,1.719,2.021
	h121.547c2.031,0,2.734,0.086,2.734-2.022V2.739C126.017,0.476,125.315,0,123.129,0z M76.315,95c-1.637,0-3.28-0.133-4.909-0.016
	c-1.175,0.088-1.568-0.406-1.881-1.426c-1.514-4.931-3.123-9.86-4.638-14.79c-0.305-0.992-0.741-1.354-1.816-1.341
	c-5.523,0.064-11.049,0.058-16.573-0.007c-1.163-0.014-1.698,0.296-2.03,1.45c-1.406,4.904-2.944,9.768-4.365,14.667
	c-0.308,1.062-0.776,1.433-1.904,1.404c-3.318-0.083-6.641-0.032-10.274-0.032c0.959-3.045,1.829-5.861,2.729-8.665
	c5.514-17.2,11.047-34.4,16.521-51.611c0.382-1.198,0.913-1.567,2.143-1.54c3.886,0.086,7.775,0.022,11.663,0
	c0.727-0.005,1.223,0.038,1.489,0.864c6.505,20.116,13.033,40.356,19.555,60.47C82.053,94.518,82.035,95,82.05,95L76.315,95
	L76.315,95z M97.017,95h-12V50h12V95z M90.667,43.929c-3.665-0.005-6.289-2.528-6.314-6.07c-0.024-3.532,2.707-6.159,6.406-6.163
	c3.728-0.004,6.355,2.537,6.384,6.171C97.169,41.412,94.476,43.935,90.667,43.929z"/>
</svg>
