<?xml version="1.0" encoding="utf-8"?>
<!-- Generator: Adobe Illustrator 24.2.1, SVG Export Plug-In . SVG Version: 6.00 Build 0)  -->
<svg version="1.1" id="Layer_1" xmlns="http://www.w3.org/2000/svg" xmlns:xlink="http://www.w3.org/1999/xlink" x="0px" y="0px"
	 width="125px" height="125px" viewBox="0 0 125 125" enable-background="new 0 0 125 125" xml:space="preserve">
<path fill="#00F8DF" d="M0,0v125h125V0H0z M66.119,106.513c-1.845,3.749-5.367,6.212-9.448,7.401
	c-6.271,1.44-12.269,0.619-16.731-2.059c-2.986-1.832-5.318-4.652-6.901-7.901l9.52-5.83c0.083,0.035,0.333,0.487,0.667,1.071
	c1.214,2.034,2.261,3.474,4.319,4.485c2.022,0.69,6.461,1.131,8.175-2.427c1.047-1.81,0.714-7.628,0.714-14.065
	C56.433,77.073,56.48,67,56.48,57h11.709c0,11,0.06,21.418,0,32.152C68.214,95.732,68.785,101.598,66.119,106.513z M114.693,103.205
	c-4.07,13.922-26.762,14.374-35.83,5.176c-1.916-2.165-3.117-3.296-4.26-5.795c4.819-2.772,4.819-2.772,9.508-5.485
	c2.547,3.915,4.902,6.068,9.139,6.949c5.748,0.702,11.531-1.273,10.234-7.378c-1.333-4.986-11.77-6.199-18.873-11.531
	C77.4,80.298,75.71,68.53,81.636,61.806c1.975-2.487,5.343-4.343,8.877-5.235l3.688-0.477c7.081-0.143,11.507,1.727,14.756,5.355
	c0.904,0.916,1.642,1.904,3.022,4.045c-3.772,2.404-3.76,2.381-9.163,5.879c-1.154-2.486-3.069-4.046-5.093-4.724
	c-3.142-0.952-7.104,0.083-7.926,3.403c-0.285,1.023-0.226,1.975,0.227,3.665c1.273,2.903,5.545,4.165,9.377,5.926
	c11.031,4.474,14.756,9.271,15.672,14.981C115.955,99.54,114.86,102.729,114.693,103.205z"/>
</svg>
