<?xml version="1.0" encoding="utf-8"?>
<!-- Generator: Adobe Illustrator 24.2.1, SVG Export Plug-In . SVG Version: 6.00 Build 0)  -->
<svg version="1.1" id="Layer_1" xmlns="http://www.w3.org/2000/svg" xmlns:xlink="http://www.w3.org/1999/xlink" x="0px" y="0px"
	 width="122px" height="122.001px" viewBox="0 0 122 122.001" enable-background="new 0 0 122 122.001" xml:space="preserve">
<path id="plain" fill="#09C4DD" d="M113,0H9C4.087-0.05,0.06,3.887,0,8.8v104.42c0.071,4.905,4.094,8.83,9,8.78h104
	c4.913,0.039,8.934-3.898,9-8.81V8.77C121.912,3.874,117.897-0.039,113,0z M36.17,104H18.06V45.73h18.11V104z M27.17,37.79
	c-5.799,0.006-10.504-4.691-10.51-10.49s4.691-10.504,10.49-10.51s10.504,4.691,10.51,10.49c0,0.003,0,0.007,0,0.01
	c-0.011,5.799-4.721,10.491-10.52,10.48c-0.007,0-0.013,0-0.02,0L27.17,37.79z M104,104H85.89V75.65c0-6.75-0.12-15.44-9.41-15.44
	s-10.87,7.36-10.87,15V104H47.53V45.73h17.36v8h0.24c2.42-4.58,8.32-9.41,17.13-9.41C100.6,44.28,104,56.35,104,72V104z"/>
</svg>
