<?xml version="1.0" encoding="utf-8"?>
<!-- Generator: Adobe Illustrator 24.2.1, SVG Export Plug-In . SVG Version: 6.00 Build 0)  -->
<svg version="1.1" id="Layer_1" xmlns="http://www.w3.org/2000/svg" xmlns:xlink="http://www.w3.org/1999/xlink" x="0px" y="0px"
	 width="53.431px" height="118.89px" viewBox="0 0 53.431 118.89" enable-background="new 0 0 53.431 118.89" xml:space="preserve">
<path fill-rule="evenodd" clip-rule="evenodd" fill="#00F8DF" d="M53.207,52.727c-0.37-4.79-1.496-9.409-3.062-13.934
	c-3.244-10.104-8.45-19.046-15.783-26.74c-1.854-1.946-3.916-3.729-5.209-6.151c-0.818-1.532-1.597-3.085-2.394-4.629L26.254,0
	c-0.085,0.292-0.139,0.396-0.142,0.501c-0.065,2.517-1.491,4.224-3.267,5.817c-1.997,1.793-3.856,3.739-5.775,5.618
	c-1.968,2.588-3.935,5.176-5.901,7.763c-1.592,2.925-3.182,5.85-4.772,8.775l-3.19,8.617l-0.096,0.134
	c-1.756,5.768-2.622,11.698-3.048,17.688c-0.16,2.251,0.022,4.535,0.149,6.798c0.181,3.235,0.743,6.415,1.586,9.545
	c3.062,11.372,9.276,20.805,17.771,28.819c1.579,1.489,3.199,2.843,4.847,4.26c0.282-0.965,0.507-1.93,0.763-2.895
	c0.256-0.961,0.515-1.917,0.688-2.881c-0.174,0.964-0.369,1.92-0.562,2.881l-0.826,2.895l0.738,2.501l0.684,3.884l0.326,4.053
	c-0.003,0.823-0.036,1.648,0.014,2.47c0.012,0.21,0.288,0.404,0.442,0.606l1.376,0.483l1.434,0.558l-0.246-3.603l-0.011-3.548
	l0.495-5.405l0.359-1.177l1.027-1.82c1.268-1.02,2.629-1.946,3.784-3.081c2.09-2.054,4.175-4.134,6.045-6.383
	c2.427-2.917,4.515-6.101,6.191-9.516c1.122-2.284,2.178-4.614,3.052-7.001c0.77-2.104,1.247-4.315,1.854-6.479
	c0.054-0.156,0.126-0.309,0.16-0.468C53.457,64.568,53.668,58.668,53.207,52.727z M29.608,102.102l-0.805-1.763L29.608,102.102
	l1.183,1.01L29.608,102.102z"/>
</svg>
