<?xml version="1.0" encoding="utf-8"?>
<!-- Generator: Adobe Illustrator 24.2.1, SVG Export Plug-In . SVG Version: 6.00 Build 0)  -->
<svg version="1.1" id="Layer_1" xmlns="http://www.w3.org/2000/svg" xmlns:xlink="http://www.w3.org/1999/xlink" x="0px" y="0px"
	 width="107.001px" height="120.919px" viewBox="0 0 107.001 120.919" enable-background="new 0 0 107.001 120.919"
	 xml:space="preserve">
<path fill="#00F8DF" d="M102.678,26.793L58.535,1.188c-2.781-1.584-6.424-1.584-9.227,0L4.82,26.793C1.951,28.444,0,31.547,0,34.866
	v51.142c0,3.319,1.992,6.423,4.862,8.083l11.729,6.688c5.627,2.772,7.186,2.772,9.746,2.772c8.334,0,12.662-5.039,12.662-13.828
	v-50.49c0.001-0.713,0.446-1.774-0.255-1.774h-5.622C32.41,37.459,31,38.52,31,39.232v50.49c0,3.896-3.616,7.773-10.202,4.48
	L8.676,87.189C8.254,86.959,8,86.496,8,86.008V34.866c0-0.482,0.463-0.966,0.891-1.213L53.269,8.092
	c0.415-0.235,1.002-0.235,1.415,0l43.963,25.555c0.421,0.253,0.354,0.722,0.354,1.219v51.142c0,0.488,0.092,0.963-0.323,1.198
	l-44.133,25.576c-0.378,0.227-0.87,0.227-1.285,0l-11.317-6.749c-0.341-0.198-0.752-0.269-1.08-0.086
	c-3.145,1.783-3.729,2.02-6.679,3.043c-0.727,0.253-1.799,0.692,0.408,1.929l14.798,8.754c1.416,0.82,3.027,1.246,4.647,1.246
	c1.642,0,3.249-0.426,4.666-1.246l43.976-25.582c2.871-1.672,4.322-4.764,4.322-8.083V34.866
	C107,31.547,105.549,28.452,102.678,26.793z M67.727,77.904c-11.727,0-14.309-3.235-15.17-9.066
	c-0.102-0.628-0.634-1.379-1.274-1.379h-5.73c-0.709,0-1.28,0.86-1.28,1.566c0,7.466,4.06,16.512,23.454,16.512
	c14.038,0,22.088-5.455,22.088-15.109c0-9.572-6.467-12.084-20.082-13.886c-13.762-1.819-15.16-2.738-15.16-5.962
	c0-2.658,1.184-6.203,11.374-6.203c9.104,0,12.46,1.954,13.841,8.091c0.119,0.577,0.646,0.991,1.241,0.991h5.754
	c0.354,0,0.691-0.143,0.939-0.396c0.241-0.272,0.367-0.613,0.336-0.979C87.165,41.515,80.145,36.59,65.946,36.59
	c-12.632,0-20.166,5.334-20.166,14.275c0,9.698,7.497,12.378,19.622,13.577c14.505,1.422,15.633,3.542,15.633,6.395
	C81.035,75.793,77.057,77.904,67.727,77.904z"/>
</svg>
