<?xml version="1.0" encoding="utf-8"?>
<!-- Generator: Adobe Illustrator 24.2.1, SVG Export Plug-In . SVG Version: 6.00 Build 0)  -->
<svg version="1.1" id="Layer_1" xmlns="http://www.w3.org/2000/svg" xmlns:xlink="http://www.w3.org/1999/xlink" x="0px" y="0px"
	 width="126px" height="125.753px" viewBox="0 0 126 125.753" enable-background="new 0 0 126 125.753" xml:space="preserve">
<path fill-rule="evenodd" clip-rule="evenodd" fill="#00F8DF" d="M49.246,40.616c-3.682-0.925-7.369-0.628-11.26-0.022
	c0,6.805-0.014,13.427,0.037,20.05c0.002,0.339,0.511,0.929,0.841,0.974c4.243,0.573,8.463,0.619,12.431-1.315
	c4.105-2,6.196-6.182,5.654-11.092C56.457,44.74,53.81,41.763,49.246,40.616z M126,62.963V2.285C126,0.189,126.023,0,123.988,0
	H2.479C0.5,0,0,0.19,0,2.186v121.509c0,2.018,0.252,2.021,2.209,2.021c40.555,0.001,81.231-0.009,121.786,0.037
	c1.573,0.002,1.995-0.417,1.991-1.959C125.932,103.517,126,83.238,126,62.963z M55.352,68.803C49.795,70.785,44,70.896,38,70.431V93
	H27v-1.402c0-18.895-0.087-37.788-0.14-56.682c-0.006-1.569,0.243-2.327,2.011-2.507c8.332-0.852,16.617-1.81,24.902,0.133
	c8.906,2.087,14.041,7.975,14.431,16.11C68.687,58.726,64.26,65.626,55.352,68.803z M99.662,81.557
	c-0.424,5.771-3.678,9.56-9.015,11.392c-7.142,2.452-14.245,1.883-21.225-0.891c-1.143-0.455-1.364-1.031-0.987-2.196
	c0.687-2.126,1.19-4.312,1.72-6.286c2.951,0.866,5.757,1.947,8.664,2.458c2.053,0.361,4.272,0.149,6.359-0.178
	c1.871-0.294,3.217-1.564,3.524-3.572c0.312-2.041-0.303-3.809-2.105-4.895c-1.432-0.862-3.01-1.479-4.523-2.202
	c-2.433-1.163-5.026-2.075-7.27-3.53c-8.831-5.727-5.956-16.383-0.063-20.396c3.153-2.146,6.642-3.098,10.377-3.229
	c4.393-0.154,8.623,0.604,12.778,2.623l-2.195,7.789c-1.74-0.616-3.36-1.416-5.07-1.734c-2.029-0.378-4.157-0.589-6.205-0.422
	c-2.746,0.225-4.354,2.12-4.354,4.47c0,1.392,0.528,2.57,1.689,3.245c1.666,0.969,3.434,1.768,5.186,2.579
	c1.896,0.877,3.898,1.551,5.723,2.552C97.54,71.804,100.075,75.934,99.662,81.557z"/>
</svg>
