<?xml version="1.0" encoding="utf-8"?>
<!-- Generator: Adobe Illustrator 24.2.1, SVG Export Plug-In . SVG Version: 6.00 Build 0)  -->
<svg version="1.1" id="Layer_1" xmlns="http://www.w3.org/2000/svg" xmlns:xlink="http://www.w3.org/1999/xlink" x="0px" y="0px"
	 width="121.034px" height="122.371px" viewBox="0 0 121.034 122.371" enable-background="new 0 0 121.034 122.371"
	 xml:space="preserve">
<path fill="#00F8DF" d="M45.847,59.185h29.159c8.117,0,14.511-6.868,14.511-15.019V16.368c0-7.912-6.632-13.856-14.555-15.176
	c-5.014-0.835-10.195-1.215-15.187-1.191c-4.99,0.023-9.612,0.448-13.805,1.191C33.615,3.373,31.517,7.943,31.517,16.368v10.817h29
	v4H20.293c-8.484,0-15.914,5.108-18.237,14.811c-2.681,11.12-2.8,17.919,0,29.53c2.075,8.642,7.03,14.659,15.515,14.659h9.946
	V77.137C27.517,67.5,35.945,59.185,45.847,59.185z M44.009,20.075c-3.026,0-5.478-2.479-5.478-5.545
	c0-3.079,2.451-5.581,5.478-5.581c3.015,0,5.479,2.502,5.479,5.581C49.487,17.596,47.023,20.075,44.009,20.075z M118.798,45.996
	c-2.098-8.448-6.103-14.811-14.599-14.811H93.517v12.981c0,10.05-8.794,18.019-18.511,18.019H45.847
	c-7.988,0-14.33,7.326-14.33,15.326v27.8c0,7.91,6.745,12.564,14.462,14.834c9.242,2.717,17.994,3.208,29.051,0
	c7.349-2.129,14.487-6.411,14.487-14.834V94.185h-29v-4h43.682c8.484,0,11.647-5.776,14.599-14.66
	C121.845,66.38,121.714,57.726,118.798,45.996L118.798,45.996z M76.843,101.602c3.027,0,5.479,2.479,5.479,5.547
	c0,3.076-2.451,5.579-5.479,5.579c-3.015,0-5.478-2.502-5.478-5.579C71.365,104.081,73.828,101.602,76.843,101.602z"/>
</svg>
