<svg width="1565" height="1559" xmlns="http://www.w3.org/2000/svg" baseProfile="tiny-ps" version="1.2">
 <title>logo-blue-svg copy-svg</title>
 <defs>
  <clipPath id="cp1" clipPathUnits="userSpaceOnUse">
   <path id="svg_1" d="m0.24,0l6893.02,0l0,1558.22l-6893.02,0l0,-1558.22z"/>
  </clipPath>
 </defs>
 <g>
  <title>Layer 1</title>
  <g id="HOMEPAGE">
   <g id="Snowflake-Homepage-platform-alt-3-Copy">
    <g id="Components-/-Navigation-/-Main">
     <g id="Logo-/-Snowflake-Blue">
      <g id="Layer">
       <g id="Mask"/>
       <g clip-path="url(#cp1)" id="Clip-Path: Clip-Path: Fill-1">
        <g id="Clip-Path: Fill-1">
         <path fill="#00f8df" d="m522.63,807.57c-7,22.5 -22.19,42.49 -44.56,55.27l-331.35,189.85c-46.8,26.7 -106.42,10.87 -133.28,-35.31c-27.03,-46.44 -11.12,-105.52 35.64,-132.3l185.18,-105.91l-185.18,-106.19c-46.76,-26.74 -62.75,-85.83 -35.64,-132.1c26.86,-46.3 86.48,-62.18 133.28,-35.48l331.35,189.73c23.3,13.33 38.87,34.47 45.41,58.11c2.2,7.6 3.18,15.2 3.56,22.84c0.26,10.52 -1.1,21.18 -4.41,31.49zm89.91,177.81c50.46,3.6 90.3,45.46 90.3,96.39l0,379.59c0,53.53 -43.79,96.86 -97.55,96.86c-54.02,0 -97.64,-43.33 -97.64,-96.86l0,-212.31l-185.81,106.24c-46.59,26.91 -106.17,10.99 -133.24,-35.23c-26.9,-46.31 -10.99,-105.69 35.69,-132.43l331.61,-189.61c17.82,-10.31 37.59,-14.26 56.64,-12.64zm339.63,-412.53c-50.58,-3.7 -90.34,-45.63 -90.34,-96.52l0,-379.64c0,-53.35 43.54,-96.69 97.6,-96.69c54.01,0 97.64,43.34 97.64,96.69l0,212.44l185.68,-106.41c46.68,-26.74 106.29,-10.87 133.2,35.36c26.85,46.48 11.03,105.6 -35.69,132.34l-331.57,189.78c-17.82,10.18 -37.55,14.17 -56.52,12.65zm-727.88,-202.43c-46.68,-26.74 -62.59,-85.86 -35.69,-132.34c27.07,-46.23 86.65,-62.1 133.24,-35.36l185.81,106.41l0,-212.44c0,-53.35 43.62,-96.69 97.64,-96.69c53.76,0 97.55,43.34 97.55,96.69l0,379.64c0,50.89 -39.84,92.82 -90.3,96.52c-19.05,1.52 -38.82,-2.47 -56.64,-12.65l-331.61,-189.78zm595.54,582.32c-3.95,4.03 -11.55,7.3 -17.32,7.3l-40.52,0c-5.56,0 -13.28,-3.27 -17.31,-7.3l-137.74,-136.47c-3.94,-3.86 -7.13,-11.59 -7.13,-17.02l0,-40.28c0,-5.56 3.19,-13.28 7.13,-17.19l137.74,-136.51c4.03,-3.98 11.75,-7.17 17.31,-7.17l40.52,0c5.65,0 13.37,3.19 17.32,7.17l137.82,136.51c3.94,3.91 7.12,11.63 7.12,17.19l0,40.28c0,5.43 -3.18,13.16 -7.12,17.02l-137.82,136.47zm27.66,-174.37c0,-5.52 -3.35,-13.2 -7.3,-17.28l-39.93,-39.39c-3.9,-3.9 -11.66,-7.13 -17.22,-7.13l-1.57,0c-5.56,0 -13.28,3.23 -17.15,7.13l-39.92,39.39c-3.99,4.08 -7.05,11.76 -7.05,17.28l0,1.57c0,5.43 3.06,13.03 7.05,17.02l39.92,39.47c3.91,3.91 11.59,7.13 17.15,7.13l1.57,0c5.56,0 13.32,-3.22 17.22,-7.13l39.93,-39.47c3.95,-3.99 7.3,-11.59 7.3,-17.02l0,-1.57zm492.77,409.26c46.72,26.74 62.54,86.12 35.69,132.43c-26.91,46.22 -86.57,62.14 -133.2,35.23l-185.68,-106.24l0,212.31c0,53.53 -43.63,96.86 -97.64,96.86c-54.06,0 -97.6,-43.33 -97.6,-96.86l0,-379.59c0,-50.93 39.76,-92.79 90.34,-96.39c18.97,-1.62 38.7,2.33 56.52,12.64l331.57,189.61zm-9.89,-408.46l185.18,105.91c46.76,26.78 62.76,85.86 35.73,132.3c-26.99,46.18 -86.69,62.01 -133.28,35.31l-331.61,-189.85c-22.15,-12.78 -37.47,-32.77 -44.3,-55.27c-3.23,-10.31 -4.76,-20.97 -4.37,-31.49c0.17,-7.64 1.31,-15.24 3.43,-22.84c6.62,-23.64 22.2,-44.78 45.24,-58.11l331.61,-189.73c46.59,-26.7 106.29,-10.82 133.28,35.48c27.03,46.27 11.03,105.36 -35.73,132.1l-185.18,106.19z" class="shp0" fill-rule="evenodd" id="Fill-1"/>
        </g>
       </g>
      </g>
     </g>
    </g>
   </g>
  </g>
 </g>
</svg>