<svg width="124.764" height="62.137" xmlns="http://www.w3.org/2000/svg" xmlns:xlink="http://www.w3.org/1999/xlink">
 <defs>
  <path d="m32.16,21.258l0.932,0l-0.22,-1.4l-0.712,1.4zm1.078,0.912l-1.55,0l-0.493,0.965l-1.098,0l2.423,-4.535l1.058,0l0.825,4.525l-1.018,0l-0.146,-0.965" id="A"/>
 </defs>
 <g>
  <title>Layer 1</title>
  <g id="svg_1" fill-rule="evenodd">
   <path id="svg_2" fill="#00f8df" d="m90.988,25.327l-0.152,-0.322l-3.313,-6.28a0.38,0.38 0 0 1 0.055,-0.514l5.24,-6.157a0.57,0.57 0 0 0 0.14,-0.277l-1.53,0.4l-6.352,1.7c-0.197,0.053 -0.287,-0.005 -0.385,-0.168l-3.621,-6.029a0.82,0.82 0 0 0 -0.263,-0.293l-0.3,1.605l-1.007,5.67l-0.104,0.613c-0.017,0.195 -0.117,0.267 -0.293,0.323l-7.482,2.365c-0.1,0.035 -0.216,0.08 -0.334,0.186l6.15,2.444l-0.18,0.142l-3.825,2.476c-0.152,0.1 -0.273,0.113 -0.444,0.036l-4.578,-2.04c-0.685,-0.306 -1.3,-0.712 -1.78,-1.3c-1.085,-1.327 -0.87,-2.836 0.575,-3.758a6.82,6.82 0 0 1 1.545,-0.703l7.35,-2.335c0.205,-0.064 0.3,-0.156 0.34,-0.38l1.006,-5.67c0.182,-1 0.28,-2.046 0.77,-2.972c0.2,-0.356 0.415,-0.704 0.684,-1.003c0.973,-1.08 2.332,-1.122 3.36,-0.093c0.347,0.347 0.646,0.757 0.904,1.178l3.36,5.573a0.36,0.36 0 0 0 0.492,0.2l8.2,-2.178c0.565,-0.15 1.136,-0.204 1.715,-0.095c1.262,0.236 1.813,1.197 1.386,2.415c-0.194,0.555 -0.53,1.024 -0.906,1.467l-5.711,6.747c-0.157,0.183 -0.16,0.316 -0.052,0.52l3.414,6.473c0.272,0.517 0.48,1.053 0.486,1.646c0.014,1.35 -0.973,2.453 -2.314,2.65c-0.75,0.1 -1.45,-0.05 -2.152,-0.267l-5.15,-1.568a0.29,0.29 0 0 1 -0.248,-0.282l-0.622,-3.624c-0.006,-0.033 0.004,-0.07 0.01,-0.143l5.915,1.632"/>
   <g id="svg_3" fill="#3c3a3e">
    <path fill="#00f8df" id="svg_4" d="m87.645,42.94l-4.64,-0.004a0.45,0.45 0 0 1 -0.434,-0.233l-5.732,-8.68l-1.17,8.894l-4.05,0l0.14,-1.156l2.33,-17.7a0.37,0.37 0 0 1 0.14,-0.24l4.2,-2.7c0.02,-0.013 0.05,-0.015 0.12,-0.035l-1.263,9.626l0.05,0.034l6.628,-7.347l0.652,3.764c0.034,0.184 -0.015,0.3 -0.138,0.427l-4.246,4.462l-0.2,0.2l0.13,0.206l7.32,10.27c0.044,0.062 0.108,0.1 0.163,0.166l0,0.054m-48,-8.898c-0.062,-0.316 -0.106,-0.78 -0.246,-1.212c-0.678,-2.092 -2.825,-3.24 -5.047,-2.723c-2.438,0.567 -4.18,2.484 -4.432,4.97c-0.187,1.84 0.804,3.613 2.647,4.278c1.484,0.536 2.913,0.312 4.24,-0.484c1.76,-1.055 2.713,-2.622 2.84,-4.83l-0.002,0.001zm-10.705,7.767l-0.347,2.598l-0.438,3.386c-0.017,0.132 -0.057,0.2 -0.198,0.2l-3.337,-0.005c-0.025,0 -0.05,-0.014 -0.1,-0.03l0.203,-1.6l0.74,-5.615l0.875,-6.416c0.646,-3.765 3.84,-7 7.588,-7.817c2.173,-0.47 4.252,-0.252 6.15,0.97c1.892,1.22 2.977,3 3.224,5.215c0.35,3.147 -0.808,5.76 -3.044,7.92c-1.467,1.42 -3.224,2.32 -5.25,2.625c-2.087,0.315 -4.05,-0.033 -5.8,-1.264c-0.065,-0.045 -0.134,-0.084 -0.245,-0.154"/>
    <path fill="#00f8df" id="svg_5" d="m27.126,23.926l-3.658,2.723l-0.573,-0.898c-0.524,-0.732 -1.175,-1.28 -2.12,-1.346a2.37,2.37 0 0 0 -1.996,0.785c-0.48,0.52 -0.542,1.257 -0.094,1.843c0.493,0.645 1.033,1.258 1.584,1.855l2.776,2.938c0.826,0.906 1.484,1.922 1.687,3.16c0.242,1.472 -0.052,2.874 -0.748,4.168c-1.3,2.394 -3.318,3.784 -5.997,4.218c-1.183,0.192 -2.363,0.154 -3.518,-0.186c-1.532,-0.45 -2.6,-1.455 -3.284,-2.873c-0.242,-0.5 -0.428,-1.03 -0.648,-1.568l3.967,-2.123l0.12,0.288c0.225,0.45 0.4,0.93 0.7,1.346c0.828,1.23 2.166,1.606 3.523,0.997a3.86,3.86 0 0 0 0.97,-0.63c0.874,-0.776 1.038,-1.857 0.4,-2.834c-0.372,-0.56 -0.837,-1.064 -1.3,-1.567l-3.265,-3.6c-0.73,-0.843 -1.224,-1.827 -1.38,-2.956c-0.17,-1.233 0.075,-2.397 0.717,-3.435c1.595,-2.58 3.914,-3.923 6.98,-3.812c1.748,0.063 3.14,0.88 4.22,2.24l0.947,1.255m29.612,13.866l-0.595,4.508c-0.01,0.075 -0.07,0.176 -0.133,0.206c-3.018,1.398 -6.993,1.203 -9.472,-1.612c-1.332,-1.512 -1.9,-3.307 -1.807,-5.304c0.193,-4.623 4.026,-8.658 8.6,-9.222c2.678,-0.33 5.026,0.394 6.84,2.474c1.236,1.417 1.807,3.1 1.723,4.977c-0.056,1.234 -0.25,2.462 -0.403,3.7l-0.685,5.214c-0.008,0.062 -0.02,0.123 -0.035,0.2l-3.6,0l0.143,-1.18l0.778,-6.022c0.143,-1.252 0.053,-2.495 -0.52,-3.655c-0.6,-1.233 -1.63,-1.885 -2.974,-2.027c-2.78,-0.294 -5.426,1.638 -6.02,4.374c-0.392,1.806 0.226,3.538 1.664,4.495c1.402,0.933 2.904,0.936 4.432,0.33c0.775,-0.306 1.435,-0.792 2.063,-1.447m15.206,-11.08l-0.493,3.744c-0.763,0 -1.512,-0.004 -2.26,0.002c-0.606,0.005 -1.16,0.396 -1.342,0.963c-0.07,0.222 -0.098,0.46 -0.128,0.7l-1.134,8.625l-0.283,2.186l-3.76,0l0.206,-1.622l0.736,-5.588l0.656,-4.833c0.338,-2.153 2.48,-4.064 4.652,-4.16l3.148,-0.008"/>
   </g>
  </g>
  <g id="svg_6" fill="#3c3a3e">
   <use fill="#00f8df" id="svg_7" xlink:href="#A"/>
   <path fill="#00f8df" id="svg_8" d="m38.786,19.52l-0.552,0l-0.186,1.045l0.552,0c0.333,0 0.6,-0.22 0.6,-0.632c0,-0.273 -0.167,-0.413 -0.413,-0.413l-0.001,0zm-1.337,-0.9l1.45,0c0.76,0 1.3,0.452 1.3,1.23c0,0.978 -0.692,1.637 -1.677,1.637l-0.625,0l-0.293,1.657l-0.944,0l0.798,-4.525"/>
   <use fill="#00f8df" id="svg_9" x="11.24" xlink:href="#A"/>
   <path fill="#00f8df" id="svg_10" d="m50.607,22.974a2.48,2.48 0 0 1 -1.025,0.233c-1.197,0 -1.95,-0.9 -1.95,-2.023c0,-1.437 1.2,-2.648 2.65,-2.648c0.36,0 0.685,0.086 0.95,0.233l-0.133,1.085c-0.2,-0.22 -0.52,-0.373 -0.918,-0.373c-0.825,0 -1.557,0.746 -1.557,1.6c0,0.66 0.412,1.17 1.065,1.17a1.69,1.69 0 0 0 1.044,-0.366l-0.127,1.078m5.776,-1.653l-1.97,0l-0.32,1.823l-0.944,0l0.798,-4.525l0.945,0l-0.32,1.8l1.97,0l0.32,-1.8l0.945,0l-0.798,4.525l-0.945,0l0.32,-1.823m3.464,1.824l0.798,-4.525l2.5,0l-0.16,0.9l-1.555,0l-0.16,0.878l1.437,0l-0.16,0.912l-1.447,0l-0.16,0.912l1.564,0l-0.16,0.912l-2.508,0"/>
  </g>
 </g>
</svg>