<?xml version="1.0" encoding="utf-8"?>
<!-- Generator: Adobe Illustrator 24.2.1, SVG Export Plug-In . SVG Version: 6.00 Build 0)  -->
<svg version="1.1" id="Layer_1" xmlns="http://www.w3.org/2000/svg" xmlns:xlink="http://www.w3.org/1999/xlink" x="0px" y="0px"
	 width="123.37px" height="90.446px" viewBox="0 0 123.37 90.446" enable-background="new 0 0 123.37 90.446" xml:space="preserve">
<g>
	<path fill="#00F8DF" d="M-824.546,903.566l0.1-2v-0.6h-0.8c-1.2,0-2.5,0.3-3.4,0.9c-1.4,0.8-2.2,2.3-2.2,4.4c0,3,1.5,4.7,4.1,4.7
		c0.8,0,1.3-0.1,2.3-0.4v-4.3C-824.446,906.266-824.546,903.566-824.546,903.566z M-899.146,906.166c0,3.2,1.6,4.9,4.7,4.9
		c0.7,0,1,0,2-0.2v-9.5c-1-0.2-1.2-0.3-2-0.3C-897.446,901.066-899.146,902.966-899.146,906.166z M-869.546,910.066
		c0,1.2,0.7,1.7,2.3,1.7c0.9,0,1.8-0.1,2.8-0.3v-4C-868.446,907.866-869.546,908.466-869.546,910.066z M-806.546,900.966
		c-2.3,0-3.7,1.9-3.7,5.2c0,3.3,1.3,5.2,3.7,5.2c2.3,0,3.6-1.9,3.6-5.2C-802.946,902.966-804.246,900.966-806.546,900.966z
		 M-789.446,885.866c0-3.8-3.1-6.9-6.9-6.9h-111.2c-3.8,0-6.9,3.1-6.9,6.9v40.1c0,3.9,3.1,7,6.9,7h111.1c3.8,0,6.9-3.1,6.9-6.9
		v-40.2H-789.446z M-905.146,906.266c0-6,4-10,10.2-10c1,0,1.6,0.1,2.6,0.3v-8.6h6v27c-3,0.6-5.3,0.8-7.7,0.8
		C-901.346,915.766-905.146,912.566-905.146,906.266z M-877.446,910.466c0,4.7-0.2,7-1.2,9c-1,1.9-2.1,3.1-4.7,4.4l-5.5-2.6
		c2.6-1.2,3.7-2.3,4.5-4c0.8-1.7,0.9-3.7,0.9-8.8v-11.5h6V910.466z M-877.446,893.966h-6v-6h6V893.966z M-859.446,915.266
		c-2,0.4-5.8,0.7-8.3,0.7c-5,0-7.1-1.7-7.1-5.6c0-4.2,3.3-6.1,10.3-6.7v-1.3c0-1.1-0.5-1.5-2-1.5c-2.2,0-5,0.6-7,1.8v-4.6
		c3-1.2,5.1-1.8,7.8-1.8c3,0,4.8,0.8,5.7,2.4c0.5,0.9,0.5,2,0.5,4.5v12.1H-859.446z M-838.446,915.966h-6v-11.8c0-2.3-1-3.1-3.1-3.1
		c-0.8,0-1.9,0.1-2.9,0.4v14.5h-6v-18.3c4-0.9,6.5-1.3,9.4-1.3c3,0,5.4,0.7,6.7,2c1.3,1.3,1.9,2.6,1.9,5.6V915.966z
		 M-819.146,904.366l0.7,5.6v1.7c0,5.1-0.6,7.5-1.9,9.4c-1.8,2.9-5.1,4.3-9.7,4.3c-2.3,0-4.5-0.3-6.5-1.2v-5.5
		c2,1.1,4.2,1.6,6.4,1.6c3.9,0,5.6-1.6,5.6-5.3v-0.1c-1,0.6-2.4,0.8-3.9,0.8c-5.2,0-8.5-3.4-8.5-8.8c0-6.7,4.9-10.5,13.5-10.5
		c2.5,0,4.9,0.3,7.7,0.8l-2.3,4.3c-1.6-0.3,1.3,0-0.7-0.2 M-806.646,916.066c-5.9,0-9.6-3.7-9.6-9.7c0-6.2,3.8-10.1,9.8-10.1
		c5.9,0,9.5,3.7,9.5,9.8C-796.846,912.166-800.646,916.066-806.646,916.066z"/>
</g>
<path fill="#00F8DF" d="M-641.306,538.387v125h125v-125H-641.306z M-575.187,644.9c-1.845,3.749-5.367,6.212-9.448,7.401
	c-6.271,1.44-12.269,0.619-16.731-2.059c-2.986-1.832-5.318-4.652-6.901-7.901l9.52-5.83c0.083,0.035,0.333,0.487,0.667,1.071
	c1.214,2.034,2.261,3.474,4.319,4.485c2.022,0.69,6.461,1.131,8.175-2.427c1.047-1.81,0.714-7.628,0.714-14.065
	c-0.001-10.115,0.046-20.188,0.046-30.188h11.709c0,11,0.06,21.418,0,32.152C-573.092,634.119-572.521,639.985-575.187,644.9z
	 M-526.613,641.592c-4.07,13.922-26.762,14.374-35.83,5.176c-1.916-2.165-3.117-3.296-4.26-5.795
	c4.819-2.772,4.819-2.772,9.508-5.485c2.547,3.915,4.902,6.068,9.139,6.949c5.748,0.702,11.531-1.273,10.234-7.378
	c-1.333-4.986-11.77-6.199-18.873-11.531c-7.211-4.843-8.901-16.611-2.975-23.335c1.975-2.487,5.343-4.343,8.877-5.235l3.688-0.477
	c7.081-0.143,11.507,1.727,14.756,5.355c0.904,0.916,1.642,1.904,3.022,4.045c-3.772,2.404-3.76,2.381-9.163,5.879
	c-1.154-2.486-3.069-4.046-5.093-4.724c-3.142-0.952-7.104,0.083-7.926,3.403c-0.285,1.023-0.226,1.975,0.227,3.665
	c1.273,2.903,5.545,4.165,9.377,5.926c11.031,4.474,14.756,9.271,15.672,14.981C-525.351,637.927-526.446,641.116-526.613,641.592z"
	/>
<path fill="#00F8DF" d="M-843.144,547.173l10.055,112.883l45.118,12.58l45.244-12.626l10.063-112.837
	C-732.664,547.173-843.144,547.173-843.144,547.173z M-753.553,573.035l-3.347,37.605l0.01,0.203l-0.014,0.467v-0.004l-2.378,26.294
	l-0.262,2.336l-28.36,7.844v0.001l-0.022,0.019l-28.311-7.888l-1.917-21.739h13.883l0.985,11.054l15.386,4.17l-0.004,0.008v-0.002
	l15.443-4.229l1.632-18.001h-32.283l-0.277-3.043l-0.631-7.129l-0.331-3.828h34.749l1.264-14h-52.926l-0.277-3.041l-0.63-7.131
	l-0.332-3.828h69.281C-753.222,569.173-753.553,573.035-753.553,573.035z"/>
<path fill="#00F8DF" d="M-568.047,1155.171l30.5,12.3v98.7l-30.7,12.4l-49-48.7l-31,24.1l-12.3-6.2v-61.8l12.3-5.9l31,24.3
	L-568.047,1155.171z M-648.247,1198.571v37.5l18.5-19L-648.247,1198.571z M-600.147,1217.071l31.9,25.1v-50.3L-600.147,1217.071z"/>
<path fill-rule="evenodd" clip-rule="evenodd" fill="#00F8DF" d="M-196.257,603.193c0,0.703,0.207,1.167,0.323,1.618
	c0.756,2.933,2.381,5.45,4.309,7.746c2.746,3.272,6.109,5.906,9.554,8.383c2.988,2.148,6.037,4.248,9.037,6.38
	c0.515,0.366,1.002,0.787,1.561,1.236c-0.481,0.26-0.881,0.489-1.297,0.7c-3.959,2.008-7.768,4.259-11.279,6.986
	c-2.116,1.644-4.162,3.391-5.607,5.674c-2.325,3.672-3.148,7.584-1.415,11.761c0.506,1.22,1.278,2.274,2.367,3.053
	c0.353,0.252,0.749,0.502,1.162,0.6c1.058,0.249,2.136,0.412,3.207,0.609l3.033-0.002c3.354-0.299,6.407-1.448,9.166-3.352
	c4.312-2.976,7.217-6.966,8.466-12.087c0.908-3.722,0.945-7.448-0.125-11.153c-0.099-0.344-0.224-0.681-0.354-1.014
	s-0.283-0.657-0.463-1.072l6.876-3.954l0.103,0.088c-0.125,0.409-0.258,0.817-0.371,1.23c-0.817,2.984-1.36,6.02-1.165,9.117
	c0.208,3.3,1.129,6.389,3.061,9.146c1.562,2.23,5.284,2.313,6.944,0.075c0.589-0.795,1.16-1.626,1.589-2.513
	c1.121-2.315,2.159-4.671,3.23-7.011l0.187-0.428c-0.077,1.108-0.167,2.081-0.208,3.055c-0.064,1.521,0.025,3.033,0.545,4.48
	c0.445,1.238,1.202,2.163,2.62,2.326c0.97,0.111,1.743-0.333,2.456-0.896c1.114-0.879,2.019-1.965,2.691-3.199
	c1.901-3.491,3.853-6.961,5.576-10.54c1.864-3.871,3.494-7.855,5.225-11.792l0.286-0.698c0.409,1.607,0.694,3.181,1.219,4.671
	c0.61,1.729,1.365,3.417,2.187,5.058c0.389,0.775,0.344,1.278-0.195,1.928c-2.256,2.72-4.473,5.473-6.692,8.223
	c-0.491,0.607-0.98,1.225-1.389,1.888c-0.247,0.403-0.411,0.894-0.48,1.364c-0.133,0.898,0.422,1.764,1.383,1.971
	c0.878,0.189,1.813,0.259,2.708,0.193c3.097-0.228,5.909-1.315,8.395-3.157c3.221-2.386,4.255-5.642,3.475-9.501
	c-0.211-1.047-0.584-2.065-0.947-3.074c-0.163-0.455-0.174-0.774,0.123-1.198c2.575-3.677,4.775-7.578,6.821-11.569
	c0.081-0.157,0.164-0.314,0.306-0.482c0.663,3.45,1.661,6.775,3.449,9.792c-0.912,0.879-1.815,1.676-2.632,2.554
	c-1.799,1.934-3.359,4.034-4.173,6.595c-0.35,1.104-0.619,2.226-0.463,3.405c0.242,1.831,1.742,3.021,3.543,2.604
	c3.854-0.892,7.181-2.708,9.612-5.925c1.636-2.166,1.785-4.582,1.1-7.113c-0.188-0.688-0.411-1.365-0.651-2.154
	c0.951-0.295,1.878-0.649,2.837-0.868c4.979-1.136,9.904-0.938,14.702,0.86c2.801,1.05,5.064,2.807,6.406,5.571
	c1.639,3.379,0.733,6.585-2.452,8.721c-0.297,0.199-0.637,0.356-0.883,0.605c-0.151,0.153-0.242,0.459-0.205,0.67
	c0.021,0.123,0.346,0.277,0.533,0.275c1.047-0.008,1.896-0.557,2.711-1.121c2.042-1.413,3.532-3.314,3.853-5.817l0.063-0.188
	l-0.077-1.63c-0.031-0.094,0.023-0.187,0.016-0.258c-0.434-3.645-2.381-6.472-5.213-8.688c-3.28-2.565-7.153-3.621-11.249-3.788
	c-3.338-0.136-6.619,0.36-9.765,1.503c-0.897,0.325-1.786,0.71-2.688,1.073c-0.121-0.219-0.251-0.429-0.358-0.646
	c-0.926-1.896-2.048-3.708-2.296-5.882c-0.176-1.544-0.392-3.086-0.025-4.613c0.353-1.469,0.813-2.913,1.246-4.362
	c0.223-0.746,0.066-1.164-0.646-1.5c-0.248-0.117-0.518-0.219-0.786-0.258c-1.75-0.254-3.476-0.109-5.171,0.384
	c-0.6,0.175-1.036,0.511-1.169,1.175c-0.076,0.381-0.231,0.746-0.339,1.122c-0.443,1.563-0.757,3.156-1.473,4.645
	c-1.794,3.735-3.842,7.329-5.938,10.897c-0.227,0.385-0.466,0.763-0.752,1.23c-0.736-1.54-1.521-2.922-1.759-4.542
	c-0.269-1.832-0.481-3.661-0.025-5.479c0.339-1.356,0.782-2.687,1.19-4.025c0.193-0.636,0.104-0.97-0.472-1.305
	c-0.291-0.169-0.62-0.319-0.948-0.368c-1.815-0.269-3.603-0.128-5.354,0.438c-0.543,0.176-0.828,0.527-0.994,1.087
	c-0.488,1.652-0.904,3.344-1.589,4.915c-2.774,6.36-5.628,12.687-8.479,19.013c-0.595,1.321-1.292,2.596-1.963,3.882
	c-0.17,0.326-0.418,0.613-0.63,0.919c-0.17-0.201-0.236-0.339-0.235-0.477c0.005-0.813-0.092-1.65,0.063-2.436
	c0.469-2.378,1.009-4.743,1.578-7.099c0.47-1.946,1.017-3.874,1.538-5.807c0.175-0.647,0.178-1.252-0.287-1.796
	c-0.781-0.911-2.413-1.111-3.381-0.409l-0.428,0.242l0.083-0.69c0.204-1.479,0.245-2.953-0.161-4.41
	c-0.506-1.816-1.802-2.861-3.686-2.803c-0.878,0.027-1.8,0.177-2.613,0.497c-3.419,1.34-6.048,3.713-8.286,6.568
	c-0.203,0.259-0.471,0.495-0.757,0.654c-2.893,1.604-5.795,3.188-8.696,4.778l-3.229,1.769c-0.866-0.826-1.653-1.683-2.546-2.41
	c-2.727-2.224-5.498-4.393-8.244-6.592c-2.434-1.949-4.792-3.979-6.596-6.56c-1.342-1.92-2.207-4.021-2.29-6.395
	c-0.105-3.025,0.753-5.789,2.293-8.362c1.97-3.292,4.657-5.934,7.611-8.327c3.125-2.53,6.505-4.678,10.008-6.639
	c4.901-2.743,9.942-5.171,15.347-6.774c5.542-1.644,11.165-2.585,16.965-1.929c2.28,0.258,4.494,0.78,6.527,1.895
	c1.557,0.853,2.834,1.97,3.428,3.716c0.586,1.718,0.568,3.459,0.162,5.204c-0.825,3.534-2.76,6.447-5.195,9.05
	c-3.994,4.267-8.866,7.172-14.351,9.091c-3.165,1.107-6.421,1.802-9.765,2.083c-2.729,0.229-5.401-0.013-7.985-0.962
	c-1.711-0.629-3.201-1.591-4.399-2.987c-0.214-0.25-0.488-0.521-0.887-0.287c-0.391,0.23-0.46,0.602-0.329,0.979
	c0.219,0.626,0.421,1.278,0.762,1.838c0.857,1.405,2.107,2.424,3.483,3.298c2.643,1.681,5.597,2.246,8.66,2.377
	c4.648,0.201,9.183-0.493,13.654-1.74c6.383-1.78,11.933-4.924,16.384-9.884c3.706-4.13,6.353-8.791,6.92-14.419
	c0.277-2.747-0.018-5.438-1.304-7.944c-1.395-2.715-3.613-4.734-6.265-6.125c-3.862-2.025-8.03-3.204-12.332-3.204h-4.31
	c-5.21,0-10.247,1.493-15.143,3.274c-3.706,1.349-7.34,2.941-10.868,4.703c-7.683,3.839-14.838,8.468-20.715,14.833
	c-2.928,3.171-5.407,6.67-6.833,10.79c-0.417,1.206-0.813,2.499-1.111,3.746 M-168.331,637.396
	c-0.333,4.459-2.354,8.074-5.657,11.002c-1.858,1.646-3.989,2.818-6.471,3.23c-0.9,0.149-1.821,0.185-2.694-0.188
	c-1.245-0.532-1.524-1.637-1.548-2.814c-0.037-1.876,0.62-3.572,1.521-5.186c1.176-2.104,2.9-3.708,4.741-5.206
	c2.9-2.361,6.046-4.359,9.268-6.245l0.243-0.1C-168.43,633.729-168.193,635.546-168.331,637.396z M-143.173,618.017
	c-0.235,1.424-0.529,2.849-0.945,4.229c-1.438,4.777-3.285,9.406-5.282,13.973c-0.369,0.845-0.906,1.616-1.373,2.417
	c-0.072,0.124-0.179,0.231-0.283,0.334c-0.578,0.571-1.126,0.541-1.418-0.206c-0.34-0.868-0.549-1.797-0.729-2.716
	c-0.121-0.617-0.092-1.265-0.13-1.897c0.039-4.494,1.41-8.578,3.736-12.38c0.959-1.568,2.003-3.062,3.598-4.054
	c0.49-0.305,1.04-0.55,1.595-0.706C-143.554,616.772-143.032,617.165-143.173,618.017z M-126.009,639.885l6.169-7.203
	C-119.583,635.357-124.13,640.697-126.009,639.885z M-106.306,635.038c-0.436,0.25-0.911,0.43-1.358,0.661
	c-0.409,0.212-0.544-0.002-0.556-0.354c-0.008-0.239,0.027-0.489,0.093-0.721c0.833-2.938,2.366-5.446,4.647-7.486l0.16-0.082
	C-102.235,630.091-103.489,633.424-106.306,635.038z"/>
<g>
	<circle fill="#00F8DF" cx="-1020.654" cy="899.502" r="11.4"/>
	<path fill="#00F8DF" d="M-977.354,880.702c-2.2-0.8-4.5-1.6-6.9-2.3c0.6-2.4,1.1-4.8,1.5-7.1c2.1-13.2-0.2-22.5-6.6-26.1
		c-1.9-1.1-4-1.6-6.4-1.6c-7,0-15.9,5.2-24.9,13.9c-9-8.7-17.9-13.9-24.9-13.9c-2.4,0-4.5,0.5-6.4,1.6c-6.4,3.7-8.7,13-6.6,26.1
		c0.4,2.3,0.9,4.7,1.5,7.1c-2.4,0.7-4.7,1.4-6.9,2.3c-12.5,4.8-19.3,11.4-19.3,18.8c0,7.4,6.9,14,19.3,18.8c2.2,0.8,4.5,1.6,6.9,2.3
		c-0.6,2.4-1.1,4.8-1.5,7.1c-2.1,13.2,0.2,22.5,6.6,26.1c1.9,1.1,4,1.6,6.4,1.6c7.1,0,16-5.2,24.9-13.9c9,8.7,17.9,13.9,24.9,13.9
		c2.4,0,4.5-0.5,6.4-1.6c6.4-3.7,8.7-13,6.6-26.1c-0.4-2.3-0.9-4.7-1.5-7.1c2.4-0.7,4.7-1.4,6.9-2.3c12.5-4.8,19.3-11.4,19.3-18.8
		C-958.054,892.102-964.854,885.502-977.354,880.702z M-992.154,850.202c4.1,2.4,5.5,9.8,3.8,20.3c-0.3,2.1-0.8,4.3-1.4,6.6
		c-5.2-1.2-10.7-2-16.5-2.5c-3.4-4.8-6.9-9.1-10.4-13c7.4-7.3,14.9-12.3,21-12.3C-994.354,849.302-993.154,849.602-992.154,850.202z
		 M-1003.354,909.502c-1.8,3.2-3.9,6.4-6.1,9.6c-3.7,0.3-7.4,0.4-11.2,0.4c-3.9,0-7.6-0.1-11.2-0.4c-2.2-3.2-4.2-6.4-6-9.6
		c-1.9-3.3-3.7-6.7-5.3-10c1.6-3.3,3.4-6.7,5.3-10c1.8-3.2,3.9-6.4,6.1-9.6c3.7-0.3,7.4-0.4,11.2-0.4c3.9,0,7.6,0.1,11.2,0.4
		c2.2,3.2,4.2,6.4,6,9.6c1.9,3.3,3.7,6.7,5.3,10C-999.754,902.802-1001.454,906.102-1003.354,909.502z M-995.054,906.202
		c1.5,3.5,2.7,6.9,3.8,10.3c-3.4,0.8-7,1.4-10.8,1.9c1.2-1.9,2.5-3.9,3.6-6C-997.254,910.302-996.154,908.202-995.054,906.202z
		 M-1020.654,933.302c-2.4-2.6-4.7-5.4-6.9-8.3c2.3,0.1,4.6,0.2,6.9,0.2c2.3,0,4.6-0.1,6.9-0.2
		C-1015.954,927.902-1018.254,930.702-1020.654,933.302z M-1039.254,918.302c-3.8-0.5-7.4-1.1-10.8-1.9c1.1-3.3,2.3-6.8,3.8-10.3
		c1.1,2,2.2,4.1,3.4,6.1C-1041.654,914.402-1040.454,916.302-1039.254,918.302z M-1046.254,892.802c-1.5-3.5-2.7-6.9-3.8-10.3
		c3.4-0.8,7-1.4,10.8-1.9c-1.2,1.9-2.5,3.9-3.6,6C-1044.054,888.702-1045.154,890.802-1046.254,892.802z M-1020.654,865.702
		c2.4,2.6,4.7,5.4,6.9,8.3c-2.3-0.1-4.6-0.2-6.9-0.2c-2.3,0-4.6,0.1-6.9,0.2C-1025.354,871.102-1023.054,868.302-1020.654,865.702z
		 M-998.454,886.702l-3.6-6c3.8,0.5,7.4,1.1,10.8,1.9c-1.1,3.3-2.3,6.8-3.8,10.3C-996.154,890.802-997.254,888.702-998.454,886.702z
		 M-1052.954,870.502c-1.7-10.5-0.3-17.9,3.8-20.3c1-0.6,2.2-0.9,3.5-0.9c6,0,13.5,4.9,21,12.3c-3.5,3.8-7,8.2-10.4,13
		c-5.8,0.5-11.3,1.4-16.5,2.5C-1052.154,874.802-1052.554,872.602-1052.954,870.502z M-1077.654,899.502c0-4.7,5.7-9.7,15.7-13.4
		c2-0.8,4.2-1.5,6.4-2.1c1.6,5,3.6,10.3,6,15.6c-2.4,5.3-4.5,10.5-6,15.5C-1069.354,911.102-1077.654,905.102-1077.654,899.502z
		 M-1049.154,948.802c-4.1-2.4-5.5-9.8-3.8-20.3c0.3-2.1,0.8-4.3,1.4-6.6c5.2,1.2,10.7,2,16.5,2.5c3.4,4.8,6.9,9.1,10.4,13
		c-7.4,7.3-14.9,12.3-21,12.3C-1046.954,949.702-1048.154,949.402-1049.154,948.802z M-988.354,928.502c1.7,10.5,0.3,17.9-3.8,20.3
		c-1,0.6-2.2,0.9-3.5,0.9c-6,0-13.5-4.9-21-12.3c3.5-3.8,7-8.2,10.4-13c5.8-0.5,11.3-1.4,16.5-2.5
		C-989.154,924.202-988.754,926.402-988.354,928.502z M-979.354,912.902c-2,0.8-4.2,1.5-6.4,2.1c-1.6-5-3.6-10.3-6-15.6
		c2.4-5.3,4.5-10.5,6-15.5c13.8,4,22.1,10,22.1,15.6C-963.654,904.202-969.454,909.202-979.354,912.902z"/>
</g>
<path fill="#00F8DF" d="M-369.101,602.699h29.159c8.117,0,14.511-6.868,14.511-15.019v-27.798c0-7.912-6.632-13.856-14.555-15.176
	c-5.014-0.835-10.195-1.215-15.187-1.191c-4.99,0.023-9.612,0.448-13.805,1.191c-12.355,2.181-14.453,6.751-14.453,15.176v10.817h29
	v4h-40.224c-8.484,0-15.914,5.108-18.237,14.811c-2.681,11.12-2.8,17.919,0,29.53c2.075,8.642,7.03,14.659,15.515,14.659h9.946
	v-13.048C-387.431,611.014-379.003,602.699-369.101,602.699z M-370.939,563.589c-3.026,0-5.478-2.479-5.478-5.545
	c0-3.079,2.451-5.581,5.478-5.581c3.015,0,5.479,2.502,5.479,5.581C-365.461,561.11-367.925,563.589-370.939,563.589z
	 M-296.15,589.51c-2.098-8.448-6.103-14.811-14.599-14.811h-10.682v12.981c0,10.05-8.794,18.019-18.511,18.019h-29.159
	c-7.988,0-14.33,7.326-14.33,15.326v27.8c0,7.91,6.745,12.564,14.462,14.834c9.242,2.717,17.994,3.208,29.051,0
	c7.349-2.129,14.487-6.411,14.487-14.834v-11.126h-29v-4h43.682c8.484,0,11.647-5.776,14.599-14.66
	C-293.103,609.894-293.234,601.24-296.15,589.51L-296.15,589.51z M-338.105,645.116c3.027,0,5.479,2.479,5.479,5.547
	c0,3.076-2.451,5.579-5.479,5.579c-3.015,0-5.478-2.502-5.478-5.579C-343.583,647.595-341.12,645.116-338.105,645.116z"/>
<path fill-rule="evenodd" clip-rule="evenodd" fill="#00F8DF" d="M-1010.878,1192.787c-3.682-0.925-7.369-0.628-11.26-0.022
	c0,6.805-0.014,13.427,0.037,20.05c0.002,0.339,0.511,0.929,0.841,0.974c4.243,0.573,8.463,0.619,12.431-1.315
	c4.105-2,6.196-6.182,5.654-11.092C-1003.667,1196.911-1006.314,1193.934-1010.878,1192.787z M-934.124,1215.134v-60.678
	c0-2.096,0.023-2.285-2.012-2.285h-121.509c-1.979,0-2.479,0.19-2.479,2.186v121.509c0,2.018,0.252,2.021,2.209,2.021
	c40.555,0.001,81.231-0.009,121.786,0.037c1.573,0.002,1.995-0.417,1.991-1.959
	C-934.192,1255.688-934.124,1235.409-934.124,1215.134z M-1004.772,1220.974c-5.557,1.982-11.352,2.093-17.352,1.628v22.569h-11
	v-1.402c0-18.895-0.087-37.788-0.14-56.682c-0.006-1.569,0.243-2.327,2.011-2.507c8.332-0.852,16.617-1.81,24.902,0.133
	c8.906,2.087,14.041,7.975,14.431,16.11C-991.437,1210.897-995.864,1217.797-1004.772,1220.974z M-960.462,1233.728
	c-0.424,5.771-3.678,9.56-9.015,11.392c-7.142,2.452-14.245,1.883-21.225-0.891c-1.143-0.455-1.364-1.031-0.987-2.196
	c0.687-2.126,1.19-4.312,1.72-6.286c2.951,0.866,5.757,1.947,8.664,2.458c2.053,0.361,4.272,0.149,6.359-0.178
	c1.871-0.294,3.217-1.564,3.524-3.572c0.312-2.041-0.303-3.809-2.105-4.895c-1.432-0.862-3.01-1.479-4.523-2.202
	c-2.433-1.163-5.026-2.075-7.27-3.53c-8.831-5.727-5.956-16.383-0.063-20.396c3.153-2.146,6.642-3.098,10.377-3.229
	c4.393-0.154,8.623,0.604,12.778,2.623l-2.195,7.789c-1.74-0.616-3.36-1.416-5.07-1.734c-2.029-0.378-4.157-0.589-6.205-0.422
	c-2.746,0.225-4.354,2.12-4.354,4.47c0,1.392,0.528,2.57,1.689,3.245c1.666,0.969,3.434,1.768,5.186,2.579
	c1.896,0.877,3.898,1.551,5.723,2.552C-962.584,1223.975-960.049,1228.105-960.462,1233.728z"/>
<path fill="#00F8DF" d="M-488.676,861.17l-44.143-25.605c-2.781-1.584-6.424-1.584-9.227,0l-44.488,25.605
	c-2.869,1.651-4.82,4.754-4.82,8.073v51.142c0,3.319,1.992,6.423,4.862,8.083l11.729,6.688c5.627,2.772,7.186,2.772,9.746,2.772
	c8.334,0,12.662-5.039,12.662-13.828v-50.49c0.001-0.713,0.446-1.774-0.255-1.774h-5.622c-0.712,0-2.122,1.061-2.122,1.773v50.49
	c0,3.896-3.616,7.773-10.202,4.48l-12.122-7.013c-0.422-0.23-0.676-0.693-0.676-1.181v-51.142c0-0.482,0.463-0.966,0.891-1.213
	l44.378-25.561c0.415-0.235,1.002-0.235,1.415,0l43.963,25.555c0.421,0.253,0.354,0.722,0.354,1.219v51.142
	c0,0.488,0.092,0.963-0.323,1.198l-44.133,25.576c-0.378,0.227-0.87,0.227-1.285,0l-11.317-6.749
	c-0.341-0.198-0.752-0.269-1.08-0.086c-3.145,1.783-3.729,2.02-6.679,3.043c-0.727,0.253-1.799,0.692,0.408,1.929l14.798,8.754
	c1.416,0.82,3.027,1.246,4.647,1.246c1.642,0,3.249-0.426,4.666-1.246l43.976-25.582c2.871-1.672,4.322-4.764,4.322-8.083v-51.142
	C-484.354,865.924-485.805,862.829-488.676,861.17z M-523.628,912.281c-11.727,0-14.309-3.235-15.17-9.066
	c-0.102-0.628-0.634-1.379-1.274-1.379h-5.73c-0.709,0-1.28,0.86-1.28,1.566c0,7.466,4.06,16.512,23.454,16.512
	c14.038,0,22.088-5.455,22.088-15.109c0-9.572-6.467-12.084-20.082-13.886c-13.762-1.819-15.16-2.738-15.16-5.962
	c0-2.658,1.184-6.203,11.374-6.203c9.104,0,12.46,1.954,13.841,8.091c0.119,0.577,0.646,0.991,1.241,0.991h5.754
	c0.354,0,0.691-0.143,0.939-0.396c0.241-0.272,0.367-0.613,0.336-0.979c-0.893-10.569-7.913-15.494-22.112-15.494
	c-12.632,0-20.166,5.334-20.166,14.275c0,9.698,7.497,12.378,19.622,13.577c14.505,1.422,15.633,3.542,15.633,6.395
	C-510.319,910.17-514.297,912.281-523.628,912.281z"/>
<path fill-rule="evenodd" clip-rule="evenodd" fill="#00F8DF" d="M-664.596,909.426c-0.37-4.79-1.496-9.409-3.062-13.934
	c-3.244-10.104-8.45-19.046-15.783-26.74c-1.854-1.946-3.916-3.729-5.209-6.151c-0.818-1.532-1.597-3.085-2.394-4.629l-0.505-1.273
	c-0.085,0.292-0.139,0.396-0.142,0.501c-0.065,2.517-1.491,4.224-3.267,5.817c-1.997,1.793-3.856,3.739-5.775,5.618
	c-1.968,2.588-3.935,5.176-5.901,7.763c-1.592,2.925-3.182,5.85-4.772,8.775l-3.19,8.617l-0.096,0.134
	c-1.756,5.768-2.622,11.698-3.048,17.688c-0.16,2.251,0.022,4.535,0.149,6.798c0.181,3.235,0.743,6.415,1.586,9.545
	c3.062,11.372,9.276,20.805,17.771,28.819c1.579,1.489,3.199,2.843,4.847,4.26c0.282-0.965,0.507-1.93,0.763-2.895
	c0.256-0.961,0.515-1.917,0.688-2.881c-0.174,0.964-0.369,1.92-0.562,2.881l-0.826,2.895l0.738,2.501l0.684,3.884l0.326,4.053
	c-0.003,0.823-0.036,1.648,0.014,2.47c0.012,0.21,0.288,0.404,0.442,0.606l1.376,0.483l1.434,0.558l-0.246-3.603l-0.011-3.548
	l0.495-5.405l0.359-1.177l1.027-1.82c1.268-1.02,2.629-1.946,3.784-3.081c2.09-2.054,4.175-4.134,6.045-6.383
	c2.427-2.917,4.515-6.101,6.191-9.516c1.122-2.284,2.178-4.614,3.052-7.001c0.77-2.104,1.247-4.315,1.854-6.479
	c0.054-0.156,0.126-0.309,0.16-0.468C-664.346,921.267-664.135,915.367-664.596,909.426z M-688.195,958.801l-0.805-1.763
	L-688.195,958.801l1.183,1.01L-688.195,958.801z"/>
<path id="plain" fill="#00F8DF" d="M-952.179-123.673h-104c-4.913-0.05-8.94,3.887-9,8.8v104.42c0.071,4.905,4.094,8.83,9,8.78h104
	c4.913,0.039,8.934-3.898,9-8.81v-104.42C-943.267-119.8-947.282-123.712-952.179-123.673z M-1029.009-19.673h-18.11v-58.27h18.11
	V-19.673z M-1038.009-85.883c-5.799,0.006-10.505-4.691-10.51-10.49c-0.006-5.799,4.691-10.504,10.49-10.51
	c5.799-0.006,10.504,4.691,10.51,10.49c0,0.003,0,0.007,0,0.01c-0.011,5.799-4.721,10.491-10.52,10.48c-0.007,0-0.013,0-0.02,0
	L-1038.009-85.883z M-961.179-19.673h-18.11v-28.35c0-6.75-0.12-15.44-9.41-15.44c-9.29,0-10.87,7.36-10.87,15v28.79h-18.08v-58.27
	h17.36v8h0.24c2.42-4.58,8.32-9.41,17.13-9.41c18.34-0.04,21.74,12.03,21.74,27.68V-19.673z"/>
<path fill-rule="evenodd" clip-rule="evenodd" fill="#00F8DF" d="M-813.885,1223.858h15.371c-2.646-9-5.252-17.32-7.816-25.776
	C-808.818,1206.568-811.342,1214.858-813.885,1223.858z M-737.728,1155.858h-121.239c-2.186,0-1.873,0.476-1.873,2.585v121.394
	c0,2.107-0.313,2.021,1.719,2.021h121.547c2.031,0,2.734,0.086,2.734-2.022v-121.239
	C-734.84,1156.334-735.542,1155.858-737.728,1155.858z M-784.542,1250.858c-1.637,0-3.28-0.133-4.909-0.016
	c-1.175,0.088-1.568-0.406-1.881-1.426c-1.514-4.931-3.123-9.86-4.638-14.79c-0.305-0.992-0.741-1.354-1.816-1.341
	c-5.523,0.064-11.049,0.058-16.573-0.007c-1.163-0.014-1.698,0.296-2.03,1.45c-1.406,4.904-2.944,9.768-4.365,14.667
	c-0.308,1.062-0.776,1.433-1.904,1.404c-3.318-0.083-6.641-0.032-10.274-0.032c0.959-3.045,1.829-5.861,2.729-8.665
	c5.514-17.2,11.047-34.4,16.521-51.611c0.382-1.198,0.913-1.567,2.143-1.54c3.886,0.086,7.775,0.022,11.663,0
	c0.727-0.005,1.223,0.038,1.489,0.864c6.505,20.116,13.033,40.356,19.555,60.47c0.028,0.091,0.01,0.573,0.025,0.573H-784.542
	L-784.542,1250.858z M-763.84,1250.858h-12v-45h12V1250.858z M-770.19,1199.787c-3.665-0.005-6.289-2.528-6.314-6.07
	c-0.024-3.532,2.707-6.159,6.406-6.163c3.728-0.004,6.355,2.537,6.384,6.171C-763.688,1197.27-766.381,1199.793-770.19,1199.787z"/>
<path fill="#00F8DF" d="M-1070.366,530.387l10.005,112.093l44.896,12.401l45.02-12.387l10.015-112.107
	C-960.43,530.387-1070.366,530.387-1070.366,530.387z M-981.24,556.926l-0.627,7.172l-0.276,3.289h-52.665l1.257,14h50.156
	l-0.336,3.471l-3.233,36.119l-0.238,2.27l-28.196,7.749v0.002l-0.034,0.018l-28.177-7.423l-1.913-21.206h13.815l0.979,10.919
	l15.287,4.081h0.043v-0.546l15.355-3.875l1.604-17.579h-47.698l-3.383-38.117l-0.329-3.883h68.939
	C-980.91,553.387-981.24,556.926-981.24,556.926z"/>
<g>
	<path fill-rule="evenodd" clip-rule="evenodd" fill="#00F8DF" d="M-803.874-121.082c-33.347,0-60.388,27.035-60.388,60.388
		c0,26.682,17.303,49.317,41.297,57.303c3.017,0.56,4.125-1.31,4.125-2.905c0-1.44-0.056-6.197-0.082-11.243
		c-16.8,3.653-20.345-7.125-20.345-7.125c-2.747-6.98-6.705-8.836-6.705-8.836c-5.48-3.748,0.413-3.67,0.413-3.67
		c6.063,0.425,9.257,6.223,9.257,6.223c5.386,9.23,14.127,6.562,17.573,5.02c0.542-3.903,2.107-6.568,3.834-8.076
		c-13.413-1.525-27.514-6.704-27.514-29.843c0-6.593,2.36-11.98,6.223-16.21c-0.628-1.52-2.695-7.662,0.584-15.98
		c0,0,5.07-1.623,16.61,6.19c4.818-1.339,9.985-2.012,15.118-2.035c5.13,0.023,10.3,0.694,15.127,2.033
		c11.526-7.813,16.59-6.19,16.59-6.19c3.287,8.317,1.22,14.46,0.593,15.98c3.872,4.23,6.215,9.617,6.215,16.21
		c0,23.194-14.127,28.3-27.574,29.796c2.167,1.874,4.097,5.55,4.097,11.183c0,8.08-0.07,14.583-0.07,16.572
		c0,1.607,1.088,3.49,4.148,2.897c23.98-7.994,41.263-30.622,41.263-57.294C-743.486-94.045-770.524-121.081-803.874-121.082
		L-803.874-121.082z"/>
	<path fill="#00F8DF" d="M-841.39-34.379c-0.133,0.3-0.605,0.39-1.035,0.185c-0.44-0.196-0.685-0.605-0.543-0.906
		c0.13-0.31,0.603-0.395,1.04-0.188c0.44,0.197,0.69,0.61,0.537,0.91L-841.39-34.379z M-838.944-31.65
		c-0.287,0.267-0.85,0.143-1.232-0.28c-0.396-0.42-0.47-0.983-0.177-1.254c0.298-0.266,0.844-0.14,1.24,0.28
		C-838.719-32.478-838.641-31.92-838.944-31.65L-838.944-31.65z M-836.562-28.173c-0.37,0.258-0.976,0.017-1.35-0.52
		c-0.37-0.538-0.37-1.183,0.01-1.44c0.373-0.258,0.97-0.025,1.35,0.507C-836.184-29.081-836.184-28.436-836.562-28.173
		L-836.562-28.173z M-833.301-24.812c-0.33,0.365-1.036,0.267-1.552-0.23c-0.527-0.487-0.674-1.18-0.343-1.544
		c0.336-0.366,1.045-0.264,1.564,0.23c0.527,0.486,0.686,1.18,0.333,1.543L-833.301-24.812z M-828.801-22.861
		c-0.147,0.473-0.825,0.688-1.51,0.486c-0.683-0.207-1.13-0.76-0.99-1.238c0.14-0.477,0.823-0.7,1.512-0.485
		C-829.106-23.892-828.659-23.342-828.801-22.861z M-823.858-22.5c0.017,0.498-0.563,0.91-1.28,0.92
		c-0.723,0.017-1.308-0.387-1.315-0.877c0-0.503,0.568-0.91,1.29-0.924c0.717-0.013,1.306,0.387,1.306,0.88L-823.858-22.5z
		 M-819.26-23.282c0.086,0.485-0.413,0.984-1.126,1.117c-0.7,0.13-1.35-0.172-1.44-0.653c-0.086-0.498,0.422-0.997,1.122-1.126
		C-819.99-24.067-819.35-23.774-819.26-23.282L-819.26-23.282z"/>
</g>
<g id="original">
	<path fill="#00F8DF" d="M-258.835,942.92c-4.56,1.16-7.38,0.05-9.91-3.75c-5.68-8.51-11.95-16.63-18-24.9
		c-0.78-1.07-1.59-2.12-2.6-3.45c-7.16,9.66-14.31,18.86-21.02,28.43c-2.4,3.42-4.92,4.91-9.4,3.7l26.92-36.13l-25.06-32.63
		c4.31-0.84,7.29-0.41,9.93,3.45c5.83,8.52,12.26,16.63,18.67,25.21c6.45-8.55,12.8-16.67,18.8-25.11c2.41-3.42,5-4.72,9.33-3.46
		c-3.28,4.35-6.49,8.63-9.72,12.88c-4.36,5.73-8.64,11.53-13.16,17.14c-1.61,2-1.35,3.3,0.09,5.19
		C-275.605,920.48-267.345,931.58-258.835,942.92z"/>
	<path fill="#00F8DF" d="M-384.175,906.22c0.72-3.61,1.2-7.29,2.2-10.83c6-21.43,30.6-30.34,47.5-17.06
		c9.9,7.79,12.36,18.77,11.87,31.15h-55.8c-0.84,22.21,15.15,35.62,35.53,28.78c7.15-2.4,11.36-8,13.47-15
		c1.07-3.51,2.84-4.06,6.14-3.06c-1.69,8.76-5.52,16.08-13.52,20.66c-12,6.86-29.13,4.64-38.14-4.89c-5.32-5.6-7.58-12.57-8.58-20.1
		c-0.15-1.2-0.46-2.38-0.7-3.57C-384.185,910.273-384.175,908.247-384.175,906.22z M-378.305,904.73h50.43
		c-0.33-16.06-10.33-27.47-24-27.57C-366.875,877.04-377.655,888.18-378.305,904.73z"/>
</g>
<g>
	<g id="XMLID_1_">
		<g>
			<path fill="#00F8DF" d="M273.493-12.446c29.048,0,52.598,23.547,52.598,52.595c0,29.051-23.55,52.598-52.598,52.598
				c-29.048,0-52.595-23.547-52.595-52.598c0-2.453,0.172-4.869,0.497-7.233c5.032,3.737,11.264,5.948,18.016,5.948
				c16.702,0,30.244-13.54,30.244-30.244c0-7.597-2.804-14.541-7.43-19.852C265.854-12.024,269.625-12.446,273.493-12.446z"/>
		</g>
		<g>
		</g>
	</g>
</g>
<g id="XMLID_2_">
	<g>
		<polygon fill="#00F8DF" points="120.068,26.169 122.763,29.069 114.059,45.652 108.702,38.526 108.877,38.396 		"/>
		<polygon fill="#00F8DF" points="108.702,38.526 114.059,45.652 106.182,48.552 98.548,41.949 98.978,25.614 98.997,25.614 		"/>
		<polygon fill="#00F8DF" points="99.066,22.299 73.917,8.342 73.905,8.344 73.888,8.285 77.568,3.868 		"/>
		<polygon fill="#00F8DF" points="70.038,88.52 80.236,63.996 74.624,88.525 70.048,88.525 		"/>
		<polygon fill="#00F8DF" points="77.568,3.868 73.888,8.285 47.141,19.082 41.007,7.058 52.54,7.549 48.768,0.605 		"/>
		<polygon fill="#00F8DF" points="57.268,89.867 57.268,89.938 57.18,89.938 51.71,75.051 51.808,75.014 54.748,75.52 		"/>
		<polygon fill="#00F8DF" points="41.007,48.282 54.748,75.52 51.808,75.014 51.71,75.051 51.671,74.945 43.419,72.187 
			8.617,60.551 19.413,49.509 		"/>
		<polygon fill="#00F8DF" points="41.007,7.058 47.141,19.082 34.872,32.823 35.665,29.489 		"/>
		<polygon fill="#00F8DF" points="14.341,68.001 8.617,60.551 43.419,72.187 43.402,72.236 32.038,88.554 31.135,89.85 
			14.761,68.543 		"/>
		<polygon fill="#00F8DF" points="43.402,72.236 36.955,88.525 32.038,88.554 		"/>
		<polygon fill="#00F8DF" points="42.226,39.498 41.007,48.282 19.413,49.509 14.751,35.768 35.549,29.462 35.665,29.489 
			34.872,32.823 		"/>
		<polygon fill="#00F8DF" points="31.135,89.85 31.135,89.938 20.103,89.938 14.761,68.543 		"/>
		<polygon fill="#00F8DF" points="14.751,35.768 19.413,49.509 8.617,60.551 		"/>
		<polygon fill="#00F8DF" points="8.617,60.551 14.341,68.001 9.843,75.274 7.152,73.745 7.333,72.099 		"/>
		<polygon fill="#00F8DF" points="7.333,72.099 7.152,73.745 0.764,70.121 1.098,69.716 7.247,72.089 		"/>
	</g>
	<g>
		<polygon fill="none" stroke="#00F8DF" stroke-linecap="square" stroke-miterlimit="10" points="41.007,7.058 52.54,7.549 
			48.768,0.605 77.568,3.868 99.066,22.299 98.978,25.614 98.548,41.949 98.426,46.565 86.051,50.007 61.373,56.871 42.226,39.498 
			34.872,32.823 35.665,29.489 		"/>
		<polyline fill="none" stroke="#00F8DF" stroke-linecap="square" stroke-miterlimit="10" points="34.872,32.823 47.141,19.082 
			73.888,8.285 77.568,3.868 		"/>
		
			<line fill="none" stroke="#00F8DF" stroke-linecap="square" stroke-miterlimit="10" x1="41.007" y1="7.058" x2="47.141" y2="19.082"/>
		<polyline fill="none" stroke="#00F8DF" stroke-linecap="square" stroke-miterlimit="10" points="73.888,8.285 73.905,8.344 
			86.157,49.755 86.051,50.007 80.236,63.996 70.038,88.52 69.449,89.938 57.268,89.938 57.18,89.938 51.71,75.051 51.671,74.945 
			43.419,72.187 8.617,60.551 14.751,35.768 35.549,29.462 		"/>
		<polyline fill="none" stroke="#00F8DF" stroke-linecap="square" stroke-miterlimit="10" points="42.234,39.449 42.226,39.498 
			41.007,48.282 19.413,49.509 14.751,35.768 		"/>
		<polyline fill="none" stroke="#00F8DF" stroke-linecap="square" stroke-miterlimit="10" points="41.007,48.282 54.748,75.52 
			57.268,89.867 		"/>
		<polyline fill="none" stroke="#00F8DF" stroke-linecap="square" stroke-miterlimit="10" points="14.753,68.519 14.761,68.543 
			20.103,89.938 31.135,89.938 31.145,89.938 		"/>
		<polyline fill="none" stroke="#00F8DF" stroke-linecap="square" stroke-miterlimit="10" points="70.048,88.525 74.624,88.525 
			80.236,63.996 80.275,63.822 54.748,75.52 51.808,75.014 		"/>
		<polyline fill="none" stroke="#00F8DF" stroke-linecap="square" stroke-miterlimit="10" points="8.617,60.551 7.333,72.099 
			7.152,73.745 7.144,73.802 		"/>
		<polyline fill="none" stroke="#00F8DF" stroke-linecap="square" stroke-miterlimit="10" points="14.363,67.967 14.341,68.001 
			9.843,75.274 7.152,73.745 0.764,70.121 1.098,69.716 7.247,72.089 		"/>
		
			<line fill="none" stroke="#00F8DF" stroke-linecap="square" stroke-miterlimit="10" x1="73.917" y1="8.342" x2="99.066" y2="22.299"/>
		<polyline fill="none" stroke="#00F8DF" stroke-linecap="square" stroke-miterlimit="10" points="98.997,25.614 108.702,38.526 
			114.059,45.652 106.182,48.552 98.548,41.949 98.514,41.92 		"/>
		<polyline fill="none" stroke="#00F8DF" stroke-linecap="square" stroke-miterlimit="10" points="108.877,38.396 120.068,26.169 
			122.763,29.069 114.059,45.652 		"/>
	</g>
</g>
<g id="XMLID_4_">
	<g>
		<polygon fill="#00F8DF" points="-640.068,2052.648 -629.088,2064.478 -664.568,2132.048 -686.388,2103.018 -685.678,2102.488 		
			"/>
		<polygon fill="#00F8DF" points="-686.388,2103.018 -664.568,2132.048 -696.658,2143.878 -727.778,2116.968 -726.028,2050.398 
			-725.948,2050.398 		"/>
		<polygon fill="#00F8DF" points="-813.278,1961.768 -828.278,1979.768 -937.278,2023.768 -962.278,1974.768 -915.278,1976.768 
			-930.638,1948.468 		"/>
		<polygon fill="#00F8DF" points="-843.958,2306.748 -802.418,2206.828 -825.278,2306.768 -843.918,2306.768 		"/>
		<polygon fill="#00F8DF" points="-828.148,1980.008 -828.198,1980.028 -828.278,1979.768 -813.278,1961.768 -725.668,2036.878 		
			"/>
		<polygon fill="#00F8DF" points="-962.278,1974.768 -937.278,2023.768 -987.278,2079.768 -984.038,2066.178 		"/>
		<polygon fill="#00F8DF" points="-952.518,2240.398 -978.778,2306.768 -998.828,2306.888 		"/>
		<polygon fill="#00F8DF" points="-957.308,2106.968 -962.278,2142.768 -1050.278,2147.768 -1069.278,2091.768 -984.508,2066.068 
			-984.038,2066.178 -987.278,2079.768 		"/>
		<polygon fill="#00F8DF" points="-1002.508,2312.178 -1002.508,2312.528 -1047.468,2312.528 -1069.228,2225.358 		"/>
		<polygon fill="#00F8DF" points="-1069.278,2091.768 -1050.278,2147.768 -1094.278,2192.768 		"/>
		<polygon fill="#00F8DF" points="-998.828,2306.888 -1002.508,2312.178 -1069.228,2225.358 -1070.948,2223.128 -1094.278,2192.768 
			-952.448,2240.188 -952.518,2240.398 		"/>
		<polygon fill="#00F8DF" points="-1070.948,2223.128 -1089.278,2252.768 -1100.248,2246.538 -1099.508,2239.828 
			-1094.278,2192.768 		"/>
		<polygon fill="#00F8DF" points="-1099.508,2239.828 -1100.248,2246.538 -1126.278,2231.768 -1124.918,2230.128 
			-1099.858,2239.788 		"/>
	</g>
	<g>
		<polygon fill="none" stroke="#00F8DF" stroke-linecap="square" stroke-miterlimit="10" points="-962.278,1974.768 
			-915.278,1976.768 -930.638,1948.468 -813.278,1961.768 -725.668,2036.878 -726.028,2050.398 -727.778,2116.968 
			-728.278,2135.768 -778.708,2149.798 -879.278,2177.768 -957.308,2106.968 -987.278,2079.768 -984.038,2066.178 		"/>
		<polyline fill="none" stroke="#00F8DF" stroke-linecap="square" stroke-miterlimit="10" points="-987.278,2079.768 
			-937.278,2023.768 -828.278,1979.768 -813.278,1961.768 		"/>
		
			<line fill="none" stroke="#00F8DF" stroke-linecap="square" stroke-miterlimit="10" x1="-962.278" y1="1974.768" x2="-937.278" y2="2023.768"/>
		<polyline fill="none" stroke="#00F8DF" stroke-linecap="square" stroke-miterlimit="10" points="-828.278,1979.768 
			-828.198,1980.028 -778.278,2148.768 -778.708,2149.798 -802.418,2206.828 -843.958,2306.748 -846.358,2312.528 
			-896.008,2312.528 -896.358,2312.528 -918.658,2251.858 -918.818,2251.428 -952.448,2240.188 -1094.278,2192.768 
			-1069.278,2091.768 -984.508,2066.068 		"/>
		<polyline fill="none" stroke="#00F8DF" stroke-linecap="square" stroke-miterlimit="10" points="-957.278,2106.768 
			-957.308,2106.968 -962.278,2142.768 -1050.278,2147.768 -1069.278,2091.768 		"/>
		<polyline fill="none" stroke="#00F8DF" stroke-linecap="square" stroke-miterlimit="10" points="-962.278,2142.768 
			-906.278,2253.768 -896.008,2312.248 		"/>
		<polyline fill="none" stroke="#00F8DF" stroke-linecap="square" stroke-miterlimit="10" points="-1069.258,2225.248 
			-1069.228,2225.358 -1047.468,2312.528 -1002.508,2312.528 -1002.468,2312.528 		"/>
		<polyline fill="none" stroke="#00F8DF" stroke-linecap="square" stroke-miterlimit="10" points="-843.918,2306.768 
			-825.278,2306.768 -802.418,2206.828 -802.248,2206.098 -906.278,2253.768 -918.248,2251.708 		"/>
		<polyline fill="none" stroke="#00F8DF" stroke-linecap="square" stroke-miterlimit="10" points="-1094.278,2192.768 
			-1099.508,2239.828 -1100.248,2246.538 -1100.278,2246.768 		"/>
		<polyline fill="none" stroke="#00F8DF" stroke-linecap="square" stroke-miterlimit="10" points="-1070.858,2222.988 
			-1070.948,2223.128 -1089.278,2252.768 -1100.248,2246.538 -1126.278,2231.768 -1124.918,2230.128 -1099.858,2239.788 		"/>
		
			<line fill="none" stroke="#00F8DF" stroke-linecap="square" stroke-miterlimit="10" x1="-828.148" y1="1980.008" x2="-725.668" y2="2036.878"/>
		<polyline fill="none" stroke="#00F8DF" stroke-linecap="square" stroke-miterlimit="10" points="-725.948,2050.398 
			-686.388,2103.018 -664.568,2132.048 -696.658,2143.878 -727.778,2116.968 -727.918,2116.848 		"/>
		<polyline fill="none" stroke="#00F8DF" stroke-linecap="square" stroke-miterlimit="10" points="-685.678,2102.488 
			-640.068,2052.648 -629.088,2064.478 -664.568,2132.048 		"/>
	</g>
</g>
<g id="XMLID_3_">
	<g>
		<polygon fill="#00F8DF" points="-66.81,2070.667 -55.83,2082.497 -91.31,2150.067 -113.13,2121.037 -112.42,2120.507 		"/>
		<polygon fill="#00F8DF" points="-113.13,2121.037 -91.31,2150.067 -123.4,2161.896 -154.52,2134.987 -152.76,2068.417 
			-152.69,2068.417 		"/>
		<polygon fill="#00F8DF" points="-154.52,2134.987 -155.02,2153.787 -205.45,2167.817 -205.02,2166.787 -254.94,1998.047 
			-254.89,1998.027 -152.4,2054.906 -152.76,2068.417 		"/>
		<polygon fill="#00F8DF" points="-384.05,2124.987 -414.02,2097.787 -364.02,2041.787 -255.02,1997.787 -254.94,1998.047 
			-205.02,2166.787 -205.45,2167.817 -306.02,2195.787 		"/>
		<polygon fill="#00F8DF" points="-240.02,1979.787 -255.02,1997.787 -364.02,2041.787 -389.02,1992.787 -342.02,1994.787 
			-357.38,1966.497 		"/>
		<polygon fill="#00F8DF" points="-270.7,2324.767 -229.16,2224.847 -252.02,2324.787 -270.66,2324.787 		"/>
		<polygon fill="#00F8DF" points="-255.02,1997.787 -240.02,1979.787 -152.4,2054.906 -254.89,1998.027 -254.94,1998.047 		"/>
		<polygon fill="#00F8DF" points="-228.99,2224.117 -333.02,2271.787 -389.02,2160.787 -384.05,2124.987 -306.02,2195.787 
			-205.45,2167.817 -229.16,2224.847 		"/>
		<polygon fill="#00F8DF" points="-333.02,2271.787 -228.99,2224.117 -229.16,2224.847 -270.7,2324.767 -273.1,2330.547 
			-322.75,2330.547 -322.75,2330.267 		"/>
		<polygon fill="#00F8DF" points="-333.02,2271.787 -322.75,2330.267 -322.75,2330.547 -323.1,2330.547 -345.39,2269.886 
			-344.99,2269.737 		"/>
		<polygon fill="#00F8DF" points="-344.99,2269.737 -345.39,2269.886 -345.55,2269.447 -379.19,2258.197 -521.02,2210.787 
			-477.02,2165.787 -389.02,2160.787 -333.02,2271.787 		"/>
		<polygon fill="#00F8DF" points="-389.02,1992.787 -364.02,2041.787 -414.02,2097.787 -410.78,2084.197 		"/>
		<polygon fill="#00F8DF" points="-379.26,2258.417 -405.52,2324.787 -425.57,2324.917 		"/>
		<polygon fill="#00F8DF" points="-384.05,2124.987 -389.02,2160.787 -477.02,2165.787 -496.02,2109.787 -411.25,2084.087 
			-410.78,2084.197 -414.02,2097.787 		"/>
		<polygon fill="#00F8DF" points="-429.25,2330.197 -429.25,2330.547 -474.2,2330.547 -495.97,2243.377 		"/>
		<polygon fill="#00F8DF" points="-496.02,2109.787 -477.02,2165.787 -521.02,2210.787 		"/>
		<polygon fill="#00F8DF" points="-497.68,2241.156 -521.02,2210.787 -379.19,2258.197 -379.26,2258.417 -425.57,2324.917 
			-429.25,2330.197 -495.97,2243.377 		"/>
		<polygon fill="#00F8DF" points="-521.02,2210.787 -497.68,2241.156 -516.02,2270.787 -526.99,2264.557 -526.25,2257.857 		"/>
		<polygon fill="#00F8DF" points="-526.25,2257.857 -526.99,2264.557 -553.02,2249.787 -551.66,2248.146 -526.6,2257.817 		"/>
	</g>
	<g>
		<polygon fill="none" stroke="#00F8DF" stroke-linecap="square" stroke-miterlimit="10" points="-389.02,1992.787 
			-342.02,1994.787 -357.38,1966.497 -240.02,1979.787 -152.4,2054.906 -152.76,2068.417 -154.52,2134.987 -155.02,2153.787 
			-205.45,2167.817 -306.02,2195.787 -384.05,2124.987 -414.02,2097.787 -410.78,2084.197 		"/>
		<polyline fill="none" stroke="#00F8DF" stroke-linecap="square" stroke-miterlimit="10" points="-414.02,2097.787 
			-364.02,2041.787 -255.02,1997.787 -240.02,1979.787 		"/>
		
			<line fill="none" stroke="#00F8DF" stroke-linecap="square" stroke-miterlimit="10" x1="-389.02" y1="1992.787" x2="-364.02" y2="2041.787"/>
		<polyline fill="none" stroke="#00F8DF" stroke-linecap="square" stroke-miterlimit="10" points="-255.02,1997.787 
			-254.94,1998.047 -205.02,2166.787 -205.45,2167.817 -229.16,2224.847 -270.7,2324.767 -273.1,2330.547 -322.75,2330.547 
			-323.1,2330.547 -345.39,2269.886 -345.55,2269.447 -379.19,2258.197 -521.02,2210.787 -496.02,2109.787 -411.25,2084.087 		"/>
		<polyline fill="none" stroke="#00F8DF" stroke-linecap="square" stroke-miterlimit="10" points="-384.02,2124.787 
			-384.05,2124.987 -389.02,2160.787 -477.02,2165.787 -496.02,2109.787 		"/>
		<polyline fill="none" stroke="#00F8DF" stroke-linecap="square" stroke-miterlimit="10" points="-389.02,2160.787 
			-333.02,2271.787 -322.75,2330.267 		"/>
		<polyline fill="none" stroke="#00F8DF" stroke-linecap="square" stroke-miterlimit="10" points="-496,2243.267 -495.97,2243.377 
			-474.2,2330.547 -429.25,2330.547 -429.2,2330.547 		"/>
		<polyline fill="none" stroke="#00F8DF" stroke-linecap="square" stroke-miterlimit="10" points="-270.66,2324.787 
			-252.02,2324.787 -229.16,2224.847 -228.99,2224.117 -333.02,2271.787 -344.99,2269.737 		"/>
		<polyline fill="none" stroke="#00F8DF" stroke-linecap="square" stroke-miterlimit="10" points="-521.02,2210.787 
			-526.25,2257.857 -526.99,2264.557 -527.02,2264.787 		"/>
		<polyline fill="none" stroke="#00F8DF" stroke-linecap="square" stroke-miterlimit="10" points="-497.6,2241.017 
			-497.68,2241.156 -516.02,2270.787 -526.99,2264.557 -553.02,2249.787 -551.66,2248.146 -526.6,2257.817 		"/>
		
			<line fill="none" stroke="#00F8DF" stroke-linecap="square" stroke-miterlimit="10" x1="-254.89" y1="1998.027" x2="-152.4" y2="2054.906"/>
		<polyline fill="none" stroke="#00F8DF" stroke-linecap="square" stroke-miterlimit="10" points="-152.69,2068.417 
			-113.13,2121.037 -91.31,2150.067 -123.4,2161.896 -154.52,2134.987 -154.66,2134.867 		"/>
		<polyline fill="none" stroke="#00F8DF" stroke-linecap="square" stroke-miterlimit="10" points="-112.42,2120.507 
			-66.81,2070.667 -55.83,2082.497 -91.31,2150.067 		"/>
	</g>
</g>
<image overflow="visible" width="192" height="192" xlink:href="../dev_logos/apple-icon.png"  transform="matrix(2.599 0 0 2.599 -719.0031 2466.5942)">
</image>
<g id="original_1_">
	<path fill="#00F8DF" d="M1006.002,56.798c-4.34,0.05-8.14,2.29-11.35,4.29c-6,3.71-9,3.47-9,3.47l-0.1-0.17
		c-0.41-0.67,1.92-6.68-0.69-13.84c-2.82-7.83-7.3-9.72-6.94-10.32c1.53-2.59,5.36-6.7,6.89-14.36c0.91-4.64,0.67-12.28-1.39-16.28
		c-0.38-0.74-3.78,1.24-3.78,1.24s-3.18-7.09-4.07-7.66c-2.87-1.84-6,7.61-6,7.61c-4.395-0.431-8.735,1.237-11.71,4.5
		c-1.088,1.048-2.407,1.825-3.85,2.27c-0.41,0.14-0.91,0.12-2.15,3.47c-1.9,5.07,3.24,10.81,3.24,10.81s-6.13,4.33-8.4,9.72
		c-1.516,3.695-2.117,7.703-1.75,11.68c0,0-4.36,3.78-4.64,7.68c-0.26,2.732,0.36,5.475,1.77,7.83
		c0.454,0.97,1.609,1.389,2.579,0.935c0.017-0.008,0.034-0.016,0.051-0.025c0,0-2.9,3.38-0.19,4.81c2.47,1.29,6.63,2,8.83-0.19
		c1.6-1.6,1.92-5.17,2.51-6.63c0.14-0.34,0.62,0.57,1.08,1c0.424,0.371,0.879,0.706,1.36,1c0,0-3.9,1.68-2.3,5.51
		c0.53,1.27,2.42,2.08,5.51,2.06c1.15,0,13.76-0.72,17.12-1.53c1.016-0.161,1.941-0.679,2.61-1.46c5.456-1.623,10.667-3.978,15.49-7
		c4.74-3.09,6.68-3.93,10.51-4.84C1010.402,61.628,1010.192,56.728,1006.002,56.798z"/>
	<path fill="#00F8DF" d="M970.762-21.912c-34.242,0-62,27.758-62,62s27.758,62,62,62c34.242,0,62-27.758,62-62
		S1005.004-21.912,970.762-21.912z M1008.062,65.918c-3.35,0.81-4.91,1.44-9.41,4.36c-4.858,3.049-10.087,5.463-15.56,7.18
		c-1.057,0.868-2.305,1.474-3.64,1.77c-3.81,0.93-16.88,1.63-17.91,1.63h-0.24c-4,0-6.27-1.24-7.49-2.54c-3.4,1.7-7.8,1-11-0.69
		c-1.553-0.761-2.662-2.204-3-3.9c-0.119-0.682-0.119-1.378,0-2.06c-0.295-0.307-0.559-0.642-0.79-1
		c-1.817-3.023-2.609-6.551-2.26-10.06c0.29-3.73,2.87-7.06,4.55-8.83c-0.14-3.998,0.562-7.981,2.06-11.69
		c1.609-3.45,3.934-6.518,6.82-9c-1.65-2.78-3.33-7.06-1.7-11.42c1.17-3.11,2.13-4.84,4.24-5.58l0,0
		c0.921-0.266,1.777-0.722,2.51-1.34c3.077-3.343,7.326-5.37,11.86-5.66c0.19-0.48,0.41-1,0.65-1.46c1.6-3.4,3.3-5.31,5.29-6
		c1.462-0.547,3.098-0.361,4.4,0.5c0.65,0.43,1.48,1,3.9,6c0.917-0.328,1.913-0.363,2.85-0.1c1.034,0.282,1.902,0.986,2.39,1.94
		c2.47,4.74,2.8,13.19,1.72,18.62c-0.958,4.808-2.951,9.349-5.84,13.31c2.584,2.688,4.553,5.906,5.77,9.43
		c1.19,3.334,1.67,6.88,1.41,10.41c1.075-0.515,2.117-1.096,3.12-1.74c3.06-1.89,7.68-4.74,13.19-4.81
		c3.468-0.232,6.525,2.257,7,5.7C1013.385,62.143,1011.265,65.191,1008.062,65.918z"/>
</g>
<g>
	<g>
		<path d="M572.542,811.969c-9.9,0-19.4,4.1-26.3,11.3v-38.1c0-1.2-1-2.2-2.2-2.2l0,0h-13.4c-1.2,0-2.2,1-2.2,2.2v103
			c0,1.2,1,2.2,2.2,2.2h13.4c1.2,0,2.2-1,2.2-2.2l0,0v-7.1c6.9,7.2,16.3,11.3,26.3,11.3c20.9,0,37.8-18,37.8-40.2
			C610.342,829.969,593.442,811.969,572.542,811.969z M569.442,876.269c-12.7,0-23-10.6-23.1-23.8v-0.6
			c0.2-13.2,10.4-23.8,23.1-23.8c12.8,0,23.1,10.8,23.1,24.1S582.142,876.269,569.442,876.269L569.442,876.269z"/>
		<path d="M659.642,811.969c-22.6,0-40.9,18-40.9,40.2c0,22.2,18.3,40.2,40.9,40.2c22.6,0,40.9-18,40.9-40.2
			C700.542,829.969,682.242,811.969,659.642,811.969z M659.542,876.269c-12.8,0-23.1-10.8-23.1-24.1c0-13.3,10.4-24.1,23.1-24.1
			s23.1,10.8,23.1,24.1C682.642,865.469,672.242,876.269,659.542,876.269L659.542,876.269z"/>
		<path d="M409.542,813.969h-13.4c-1.2,0-2.2,1-2.2,2.2l0,0v7.1c-6.9-7.2-16.3-11.3-26.3-11.3c-20.9,0-37.8,18-37.8,40.2
			c0,22.2,16.9,40.2,37.8,40.2c9.9,0,19.4-4.1,26.3-11.3v7.1c0,1.2,1,2.2,2.2,2.2l0,0h13.4c1.2,0,2.2-1,2.2-2.2l0,0v-72
			C411.742,814.969,410.742,813.969,409.542,813.969z M370.742,876.269c-12.8,0-23.1-10.8-23.1-24.1c0-13.3,10.4-24.1,23.1-24.1
			s23,10.6,23.1,23.8v0.6C393.742,865.669,383.442,876.269,370.742,876.269L370.742,876.269z"/>
		<path d="M476.442,811.969c-9.9,0-19.4,4.1-26.3,11.3v-7.1c0-1.2-1-2.2-2.2-2.2l0,0h-13.4c-1.2,0-2.2,1-2.2,2.2l0,0v103
			c0,1.2,1,2.2,2.2,2.2l0,0h13.4c1.2,0,2.2-1,2.2-2.2l0,0v-38.1c6.9,7.2,16.3,11.3,26.3,11.3c20.9,0,37.8-18,37.8-40.2
			C514.242,829.969,497.342,811.969,476.442,811.969z M473.342,876.269c-12.7,0-23-10.6-23.1-23.8v-0.6
			c0.2-13.2,10.4-23.8,23.1-23.8c12.8,0,23.1,10.8,23.1,24.1S486.142,876.269,473.342,876.269L473.342,876.269z"/>
		<path d="M289.742,811.969c-10,0.1-19.1,5.9-23.4,15c-4.9-9.3-14.7-15.1-25.2-15c-8.2,0-15.9,4-20.7,10.6v-6.4c0-1.2-1-2.2-2.2-2.2
			l0,0h-13.4c-1.2,0-2.2,1-2.2,2.2l0,0v72c0,1.2,1,2.2,2.2,2.2l0,0h13.4c1.2,0,2.2-1,2.2-2.2l0,0v-43.1c0.5-9.6,7.2-17.3,15.4-17.3
			c8.5,0,15.6,7.1,15.6,16.4v44c0,1.2,1,2.2,2.2,2.2h13.5c1.2,0,2.2-1,2.2-2.2l0,0l-0.1-44.8c1.2-8.8,7.5-15.6,15.2-15.6
			c8.5,0,15.6,7.1,15.6,16.4v44c0,1.2,1,2.2,2.2,2.2h13.5c1.2,0,2.2-1,2.2-2.2l0,0l-0.1-49.5
			C317.842,823.869,305.242,811.969,289.742,811.969z"/>
		<path d="M772.642,887.269l-23.2-35.3l23-35c0.6-0.9,0.3-2.2-0.6-2.8c-0.3-0.2-0.7-0.3-1.1-0.3h-15.5c-1.2,0-2.3,0.6-2.9,1.6
			l-13.5,22.7l-13.5-22.6c-0.6-1-1.7-1.6-2.9-1.6h-15.5c-1.1,0-2,0.9-2,2c0,0.4,0.1,0.8,0.3,1.1l23,35l-23.2,35.3
			c-0.6,0.9-0.3,2.2,0.6,2.8c0.3,0.2,0.7,0.3,1.1,0.3h15.5c1.2,0,2.3-0.6,2.9-1.6l13.8-23l13.8,23c0.6,1,1.7,1.6,2.9,1.6h15.3
			c1.1,0,2-0.9,2-2C772.942,888.069,772.842,887.669,772.642,887.269z"/>
	</g>
</g>
<path id="original-wordmark" fill="#00F8DF" d="M1101.349,29.792h124v43.71h-62v7.29h-27.56v-7.29h-34.44V29.792z M1108.239,66.222
	h13.78v-21.86h6.89v21.86h6.89v-29.14h-27.56V66.222z M1142.679,37.082v36.42h13.78v-7.28h13.78v-29.14H1142.679z M1156.459,44.372
	h6.89v14.56h-6.89V44.372z M1177.129,37.082v29.14h13.78v-21.86h6.89v21.86h6.89v-21.86h6.89v21.86h6.89v-29.14H1177.129z"/>
<path fill-rule="evenodd" clip-rule="evenodd" fill="#00F8DF" d="M517.214,68.935c-0.45-2.918-2.901-4.829-5.752-4.958
	c-1.032-0.047-2.08,0.061-3.109,0.192c-1.243,0.158-2.471,0.438-3.711,0.623c-0.857,0.128-1.726,0.187-2.582,0.275l-0.021-0.111
	c1.598-3.018,3.263-6.003,4.775-9.064c1.159-2.348,2.151-4.781,3.176-7.194c1.696-3.998,3.051-8.12,4.173-12.309
	c1.075-4.011,1.995-8.066,2.284-12.227c0.116-1.662,0.196-3.331,0.187-4.995c-0.008-1.327-0.151-2.656-0.284-3.979
	c-0.15-1.516-0.608-2.953-1.242-4.336c-0.836-1.822-2.132-3.317-3.496-4.737c-1.092-1.137-2.293-2.173-3.484-3.208
	c-1.698-1.477-3.607-2.656-5.59-3.703c-2.253-1.19-4.621-2.121-7.09-2.75c-1.493-0.381-3.02-0.664-4.532-0.966
	c-0.544-0.11-1.089-0.337-1.633-0.337h-10.241c-0.37,0-0.737,0.191-1.11,0.233c-2.452,0.273-4.875,0.735-7.228,1.464
	c-0.88,0.273-1.684,0.101-2.52,0.024c-0.641-0.059-1.271-0.231-1.912-0.263c-2.442-0.122-4.887-0.301-7.328-0.275
	c-2.339,0.024-4.654,0.409-6.918,1.052c-1.895,0.538-3.749,1.195-5.447,2.191c-0.727,0.426-1.303,0.346-2.055,0.129
	c-2.527-0.729-5.072-1.414-7.639-1.989c-1.6-0.358-3.245-0.536-4.879-0.707c-1.566-0.163-3.144-0.261-4.718-0.294
	c-1.538-0.033-3.087-0.032-4.618,0.104c-2.439,0.217-4.832,0.713-7.158,1.513c-2.583,0.888-4.951,2.175-7.086,3.865
	c-2.167,1.715-3.905,3.809-5.303,6.2c-1.473,2.523-2.483,5.224-3.111,8.061c-0.34,1.537-0.555,3.117-0.788,4.678
	c-0.073,0.486,0.732,0.972-0.268,1.456v6.794c1,0.452,0.208,0.903,0.266,1.356c0.139,1.089,0.262,2.187,0.446,3.268
	c0.291,1.711,0.636,3.417,0.988,5.117c0.491,2.375,1.002,4.748,1.546,7.111c0.396,1.72,0.847,3.43,1.319,5.131
	c0.721,2.598,1.431,5.201,2.246,7.77c0.757,2.387,1.624,4.74,2.484,7.093c1.191,3.255,2.617,6.405,4.327,9.424
	c1.479,2.614,3.169,5.062,5.436,7.076c1.494,1.327,3.157,2.347,5.093,2.857c1.521,0.4,3.067,0.448,4.624,0.129
	c1.805-0.37,3.403-1.147,4.824-2.311c0.163-0.134,0.342-0.236,0.535,0.01c0.735,0.931,1.719,1.552,2.748,2.089
	c2.777,1.448,5.803,1.882,8.877,2.059c0.744,0.043,1.496-0.064,2.246-0.085c1.461-0.04,2.881-0.325,4.278-0.729
	c0.732-0.212,1.447-0.481,2.192-0.732c0.039,0.793,0.089,1.557,0.112,2.321l0.104,4.166c0.019,0.634,0.044,1.27,0.103,1.901
	c0.151,1.627,0.299,3.255,0.493,4.877c0.135,1.118,0.275,2.245,0.538,3.336c0.529,2.203,1.246,4.348,2.158,6.428
	c0.895,2.041,2.182,3.764,3.9,5.185c2.22,1.836,4.822,2.619,7.632,2.764c1.162,0.061,2.357,0.004,3.501-0.204
	c1.813-0.329,3.622-0.743,5.387-1.275c3.591-1.084,6.695-2.956,9.014-5.981c1.32-1.724,2.404-3.589,3.1-5.648
	c0.574-1.701,1.115-3.419,1.545-5.16c0.34-1.372,0.508-2.787,0.715-4.188c0.137-0.927,0.219-1.863,0.305-2.797
	c0.14-1.517,0.283-3.033,0.384-4.553c0.07-1.058,0.067-2.121,0.109-3.181c0.013-0.323,0.065-0.644,0.095-0.966
	c0.028-0.298,0.178-0.401,0.482-0.396c1.071,0.016,2.144,0.044,3.212-0.004c1.197-0.054,2.405-0.105,3.583-0.303
	c1.677-0.281,3.346-0.636,4.99-1.067c1.943-0.508,3.725-1.418,5.44-2.455c1.998-1.207,3.819-2.623,5.297-4.447
	C516.915,72.782,517.524,70.943,517.214,68.935L517.214,68.935z M513.802,69.917c-0.066,0.915-0.485,1.699-1.093,2.369
	c-2.869,3.163-6.468,5.082-10.585,6.027c-1.564,0.358-3.178,0.544-4.779,0.692c-1.363,0.126-2.746,0.147-4.114,0.097
	c-1.006-0.038-2.004-0.268-3.032-0.416c-0.103,0.94-0.201,1.919-0.32,2.896l-0.479,3.745c-0.145,1.187-0.258,2.378-0.407,3.564
	c-0.146,1.151-0.328,2.298-0.481,3.449c-0.143,1.072-0.248,2.149-0.407,3.219c-0.245,1.64-0.479,3.284-0.799,4.911
	c-0.384,1.945-0.973,3.829-1.934,5.583c-1.172,2.141-2.834,3.772-4.949,4.98c-2.18,1.246-4.563,1.894-6.979,2.436
	c-1.71,0.384-3.472,0.447-5.204,0.291c-3.004-0.272-5.568-1.557-7.506-3.886c-1.85-2.223-3.102-4.771-3.55-7.655
	c-0.214-1.371-0.368-2.754-0.491-4.136c-0.136-1.537-0.229-3.079-0.299-4.62c-0.089-1.957-0.154-3.914-0.197-5.871
	c-0.053-2.406-0.07-4.812-0.104-7.218l-0.006-0.092c-1.224,0.734-2.427,1.538-3.703,2.2c-1.494,0.776-3.117,1.226-4.798,1.353
	c-1.318,0.1-2.653,0.191-3.965,0.086c-2.151-0.173-4.3-0.51-6.226-1.569c-0.781-0.43-1.596-0.953-2.134-1.64
	c-1.29-1.646-0.672-3.726,1.273-4.727c1.344-0.693,2.811-0.982,4.268-1.319c1.266-0.293,2.526-0.626,3.761-1.029
	c1.222-0.4,1.993-1.391,2.754-2.363l1.206-1.551c-0.503-0.053-0.977-0.107-1.451-0.151c-1.439-0.136-2.812-0.532-4.125-1.114
	c-1.124-0.497-1.141-0.551-1.965,0.343c-1.376,1.494-2.714,3.023-4.062,4.542c-0.992,1.117-1.978,2.241-2.965,3.361
	c-0.978,1.108-1.894,2.279-2.947,3.31c-1.564,1.531-3.449,2.452-5.698,2.348c-1.443-0.066-2.764-0.572-3.952-1.399
	c-2.452-1.708-4.104-4.097-5.608-6.606c-1.927-3.215-3.406-6.64-4.672-10.159c-0.876-2.432-1.756-4.866-2.521-7.333
	c-0.831-2.681-1.56-5.396-2.277-8.11c-0.542-2.048-1.023-4.113-1.482-6.182c-0.521-2.353-1.022-4.71-1.464-7.079
	c-0.298-1.599-0.471-3.221-0.712-4.831c-0.325-2.17-0.385-4.36-0.267-6.539c0.105-1.963,0.387-3.921,0.667-5.871
	c0.388-2.698,1.277-5.244,2.556-7.648c0.783-1.473,1.755-2.812,2.879-4.056c1.845-2.042,4.078-3.518,6.562-4.626
	c1.736-0.774,3.57-1.24,5.439-1.604c2.774-0.54,5.573-0.519,8.373-0.461c1.224,0.025,2.443,0.248,3.666,0.369
	c2.633,0.262,5.214,0.816,7.762,1.5c1.857,0.498,3.676,1.143,5.518,1.703c0.185,0.056,0.456,0.051,0.607-0.048
	c2.496-1.629,5.224-2.704,8.125-3.319c1.101-0.233,2.237-0.335,3.363-0.407c1.369-0.087,2.749-0.167,4.115-0.088
	c1.642,0.094,3.276,0.336,4.908,0.56c0.792,0.108,1.565,0.383,2.359,0.458c0.38,0.036,0.783-0.242,1.185-0.335
	c2.049-0.473,4.089-1,6.156-1.374c1.539-0.278,3.111-0.409,4.676-0.499c1.745-0.1,3.503-0.173,5.247-0.089
	c2.205,0.106,4.394,0.42,6.555,0.923c2.677,0.623,5.245,1.528,7.686,2.784c1.824,0.938,3.558,2.026,5.119,3.364
	c1.023,0.878,2.07,1.745,2.994,2.723c1.14,1.206,2.303,2.413,3.018,3.958c0.538,1.165,0.922,2.371,1.028,3.647
	c0.132,1.586,0.292,3.178,0.277,4.766c-0.014,1.519-0.221,3.037-0.368,4.552c-0.334,3.454-1.085,6.833-1.997,10.167
	c-0.754,2.754-1.635,5.478-2.589,8.17c-0.879,2.481-1.893,4.917-2.918,7.343c-0.757,1.794-1.572,3.569-2.458,5.303
	c-1.677,3.286-3.421,6.538-5.438,9.633c-0.348,0.535-0.678,1.083-1.018,1.629c0.88,0.594,1.877,0.803,2.881,0.911
	c0.955,0.104,1.929,0.166,2.883,0.095c1.527-0.113,3.049-0.331,4.567-0.544c1.504-0.21,2.978-0.638,4.522-0.525
	C512.804,67.3,513.907,68.472,513.802,69.917L513.802,69.917z M491.789,66.564c-0.655-0.846-1.323-1.682-1.964-2.538
	c-1.006-1.344-1.729-2.845-2.455-4.353c-0.688-1.429-1.532-2.782-2.257-4.195c-1.265-2.465-2.553-4.922-3.718-7.435
	c-1.465-3.157-2.62-6.426-2.984-9.923c-0.154-1.48-0.193-2.958,0.106-4.424c0.479-2.341,1.702-4.172,3.758-5.428
	c1.907-1.165,4.032-1.541,6.209-1.659c1.351-0.073,2.708-0.013,4.11-0.013l-0.047-0.237c-0.872-1.823-1.687-3.677-2.641-5.457
	c-1.346-2.512-3.068-4.777-4.986-6.877c-1.421-1.555-2.96-2.998-4.646-4.273c-1.658-1.255-3.405-2.376-5.269-3.293
	c-2.223-1.093-4.538-1.938-6.967-2.477c-2.334-0.518-4.683-0.835-7.077-0.861c-2.042-0.022-4.071,0.07-6.06,0.531
	c-3.002,0.695-5.748,1.931-8.137,3.933c-1.334,1.118-2.498,2.373-3.517,3.77c-1.196,1.643-2.161,3.417-2.986,5.277
	c-1.132,2.552-1.909,5.208-2.44,7.938c-0.266,1.361-0.474,2.734-0.686,4.106c-0.074,0.48-0.08,0.971-0.123,1.521
	c0.369-0.192,0.635-0.34,0.907-0.472l0.885-0.397c2.993-1.369,6.094-2.25,9.427-2.149c1.416,0.043,2.771,0.323,4.03,0.943
	c2.415,1.191,3.828,3.216,4.442,5.779c0.424,1.769,0.714,3.573,0.996,5.372c0.221,1.405,0.447,2.825,0.473,4.242
	c0.037,2.071-0.068,4.146-0.181,6.216c-0.096,1.764-0.464,3.5-1.08,5.146c-1.12,2.993-2.368,5.937-3.534,8.913
	c-0.385,0.983-0.681,2.001-1.045,3.082c0.562,0,1.018-0.004,1.474,0.002c0.178,0.003,0.36,0.008,0.532,0.049
	c1.34,0.316,2.502,0.923,3.455,1.954c1.271,1.372,1.938,2.973,1.972,4.826c0.019,1.027-0.089,2.057-0.084,3.084
	c0.021,4.786,0.057,9.572,0.097,14.357c0.007,0.782,0.046,1.565,0.102,2.346c0.117,1.635,0.235,3.271,0.395,4.902
	c0.112,1.157,0.268,2.312,0.451,3.461c0.259,1.628,1,3.077,1.841,4.462c0.724,1.191,1.665,2.203,2.905,2.901
	c2.107,1.186,4.376,1.285,6.663,0.848c1.545-0.295,3.062-0.769,4.562-1.258c1.479-0.481,2.815-1.269,3.937-2.354
	c1.051-1.019,1.797-2.261,2.3-3.632c0.976-2.659,1.28-5.459,1.684-8.237c0.151-1.04,0.282-2.083,0.42-3.125
	c0.157-1.186,0.316-2.371,0.468-3.556c0.112-0.883,0.214-1.768,0.322-2.651c0.154-1.268,0.317-2.535,0.464-3.804
	c0.113-0.981,0.209-1.966,0.309-2.949c0.129-1.256,0.268-2.512,0.379-3.77c0.086-0.955,0.051-1.927,0.22-2.864
	c0.311-1.718,1.123-3.18,2.646-4.125c0.637-0.395,1.356-0.655,2.063-0.989L491.789,66.564L491.789,66.564z M434.192,59.512
	c-0.761-1.802-1.218-3.68-1.354-5.622c-0.128-1.825,0.089-3.643,0.276-5.46c0.182-1.76,0.333-3.528,0.386-5.296
	c0.088-2.906-0.108-5.808-0.247-8.712c-0.084-1.729,0.117-3.479,0.271-5.212c0.139-1.561,0.312-3.126,0.607-4.664
	c0.495-2.581,1.152-5.125,2.086-7.591c0.887-2.338,1.906-4.615,3.345-6.665c0.986-1.406,2.105-2.72,3.18-4.094l-0.319-0.113
	c-3.498-1.111-7.053-1.979-10.709-2.358c-1.729-0.179-3.464-0.284-5.198-0.387c-0.532-0.032-1.072,0.04-1.606,0.091
	c-1.322,0.126-2.66,0.176-3.961,0.424c-2.214,0.421-4.338,1.129-6.305,2.282c-1.766,1.035-3.249,2.373-4.491,3.978
	c-1.372,1.772-2.295,3.776-2.958,5.913c-0.783,2.521-1.156,5.115-1.257,7.733c-0.088,2.295-0.132,4.603,0.264,6.889
	c0.295,1.702,0.492,3.422,0.817,5.117c0.443,2.311,0.918,4.617,1.467,6.904c0.785,3.274,1.569,6.553,2.499,9.787
	c0.89,3.099,1.894,6.17,2.982,9.204c0.89,2.476,1.919,4.906,3.003,7.304c0.706,1.562,1.561,3.065,2.457,4.528
	c0.953,1.553,2.037,3.027,3.508,4.154c1.856,1.423,3.293,1.644,5.179,0.083c0.808-0.669,1.491-1.495,2.194-2.282
	c1.117-1.25,2.195-2.534,3.307-3.788c1.416-1.598,2.85-3.179,4.273-4.769c0.301-0.336,0.59-0.682,0.883-1.022l-0.484-0.425
	C436.518,63.744,435.148,61.774,434.192,59.512z M487.88,11.943c1.156,1.356,2.275,2.752,3.309,4.204
	c2,2.809,3.598,5.842,4.775,9.087c0.521,1.43,0.937,2.874,0.751,4.439c-0.129,1.096-0.118,2.208-0.215,3.31
	c-0.081,0.917-0.226,1.829-0.345,2.743c-0.178,1.378-0.436,2.752-0.513,4.136c-0.073,1.317,0.003,2.648,0.086,3.968
	c0.084,1.341,0.265,2.676,0.388,4.015c0.139,1.518,0.326,3.036,0.369,4.557c0.035,1.249-0.076,2.506-0.185,3.753
	c-0.13,1.502-0.511,2.956-1.079,4.351c-0.399,0.982-0.876,1.934-1.327,2.917l0.181,0.192l0.275,0.213l0.277-0.496
	c2.339-3.688,4.42-7.518,6.222-11.493c1.159-2.56,2.245-5.156,3.287-7.766c1.624-4.064,2.909-8.242,3.903-12.503
	c0.446-1.913,0.787-3.855,1.09-5.797c0.236-1.518,0.433-3.054,0.477-4.586c0.047-1.625-0.043-3.263-0.193-4.884
	c-0.112-1.224-0.414-2.456-1.181-3.451c-1.233-1.602-2.564-3.134-4.201-4.346c-1.378-1.021-2.751-2.068-4.23-2.927
	c-2.345-1.36-4.883-2.266-7.535-2.883c-2.588-0.603-5.21-0.863-7.849-0.918c-1.556-0.033-3.119,0.134-4.672,0.28
	c-1.407,0.132-2.805,0.357-4.222,0.543c1.52,0.855,3.019,1.615,4.433,2.511C482.929,6.995,485.593,9.261,487.88,11.943
	L487.88,11.943z M449.255,64.665c0.961-3.073,2.27-6.007,3.538-8.959c1.028-2.394,1.59-4.916,1.777-7.506
	c0.093-1.277,0.067-2.57,0.004-3.851c-0.071-1.423-0.185-2.85-0.392-4.259c-0.266-1.801-0.569-3.603-0.995-5.371
	c-0.462-1.913-1.627-3.245-3.623-3.736c-1.216-0.299-2.424-0.287-3.653-0.093c-3.002,0.473-5.75,1.579-8.31,3.199
	c-0.515,0.326-0.798,0.589-0.709,1.328c0.188,1.565,0.229,3.155,0.222,4.735c-0.01,2.236-0.105,4.472-0.19,6.707
	c-0.028,0.728-0.133,1.452-0.211,2.177c-0.12,1.11-0.351,2.219-0.344,3.327c0.007,1.142,0.124,2.311,0.401,3.417
	c0.88,3.507,2.744,6.377,5.799,8.402c1.879,1.245,3.958,1.873,6.24,1.992C448.964,65.65,449.102,65.155,449.255,64.665z
	 M445.669,34.578c-0.402-0.844-0.172-1.543,0.76-1.867c0.227-0.08,0.461-0.165,0.697-0.188c0.324-0.032,0.654-0.008,0.982-0.008
	c1.182,0.006,2.319,0.171,3.295,0.923c0.626,0.482,0.794,1.122,0.389,1.779c-0.575,0.932-1.452,1.4-2.529,1.49
	C447.566,36.848,446.375,36.057,445.669,34.578z M492.709,34.27c0.136-1.124,0.245-2.251,0.384-3.375
	c0.056-0.452-0.182-0.574-0.561-0.585c-1.192-0.033-2.384-0.075-3.576-0.097c-1.344-0.024-2.652,0.192-3.896,0.703
	c-1.38,0.568-2.431,1.478-2.86,2.98c-0.32,1.12-0.406,2.239-0.293,3.41c0.172,1.785,0.568,3.517,1.193,5.176
	c0.834,2.221,1.707,4.441,2.75,6.569c1.413,2.881,3.012,5.67,4.513,8.507c0.401,0.757,0.738,1.547,1.156,2.431
	c0.875-1.853,1.302-3.708,1.351-5.622c0.041-1.61-0.088-3.227-0.182-4.838c-0.059-0.986-0.198-1.966-0.294-2.95
	c-0.134-1.371-0.337-2.741-0.368-4.115c-0.031-1.397,0.068-2.802,0.188-4.197C492.327,36.929,492.548,35.602,492.709,34.27
	L492.709,34.27z M490.02,33.188c-0.443,1.223-1.39,1.913-2.618,2.116c-1.145,0.188-2.148-0.235-2.894-1.148
	c-0.531-0.65-0.328-1.42,0.468-1.859c0.914-0.506,1.919-0.634,3.104-0.711c0.322,0.059,0.807,0.108,1.268,0.24
	C490.017,32.015,490.264,32.518,490.02,33.188z M454.598,70.848c-0.655-0.535-1.521-0.566-2.144,0.021
	c-0.773,0.73-1.453,1.565-2.133,2.388c-0.785,0.951-1.521,1.94-2.534,2.677c-1.474,1.071-3.192,1.515-4.919,1.935
	c-1.373,0.334-2.752,0.644-4.129,0.965l-0.017,0.178c0.409,0.189,0.805,0.425,1.231,0.56c2.1,0.665,4.236,0.996,6.455,0.808
	c1.602-0.136,3.128-0.485,4.574-1.171c1.99-0.943,3.521-2.437,4.823-4.175c0.218-0.29,0.317-0.719,0.343-1.093
	C456.237,72.62,455.566,71.638,454.598,70.848z M506.349,71.374c-1.69,0.181-3.382,0.373-5.077,0.47
	c-0.818,0.047-1.648-0.109-2.474-0.176c-1.385-0.112-2.737-0.42-3.908-1.16c-0.678-0.427-1.241-0.475-1.961-0.233
	c-1.028,0.346-1.867,0.872-2.115,1.986c-0.169,0.753-0.23,1.533-0.298,2.304c-0.013,0.136,0.157,0.386,0.287,0.42
	c0.793,0.209,1.59,0.456,2.401,0.529c0.996,0.09,2.01,0.061,3.013,0.011c1.083-0.054,2.173-0.124,3.24-0.304
	c2.515-0.422,4.948-1.11,7.109-2.536c0.779-0.515,1.551-1.041,2.325-1.562l-0.064-0.11
	C508.001,71.136,507.179,71.286,506.349,71.374z"/>
<path fill="#00F8DF" d="M869.894,10.812c0-8.363-6.779-15.142-15.142-15.142h-95.716c-8.363,0-15.142,6.779-15.142,15.142v95.715
	c0,8.364,6.779,15.143,15.142,15.143h95.716c8.363,0,15.142-6.779,15.142-15.143C869.894,106.527,869.894,10.812,869.894,10.812z
	 M800.894,94.21c0,3.807-3.286,6.46-7.093,6.46h-27.344c-3.807,0-6.563-2.653-6.563-6.46V17.9c0-3.808,2.756-7.23,6.563-7.23h27.344
	c3.807,0,7.093,3.422,7.093,7.23V94.21z M855.894,27.754V59.64c0,3.807-2.936,7.03-6.744,7.03h-27.33
	c-3.808,0-6.926-3.224-6.926-7.03V17.536c0-3.808,3.118-6.866,6.926-6.866h27.33c3.808,0,6.744,3.058,6.744,6.866V27.754z"/>
<path fill="#00F8DF" d="M683.491,47.98L628.375-7.134c-3.172-3.174-8.32-3.174-11.497,0L605.434,4.312l14.518,14.518
	c3.375-1.139,7.243-0.375,9.932,2.314c2.703,2.706,3.461,6.607,2.294,9.993L646.17,45.13c3.385-1.167,7.292-0.413,9.994,2.295
	c3.78,3.777,3.78,9.9,0,13.679c-3.78,3.78-9.901,3.78-13.683,0c-2.842-2.844-3.545-7.019-2.105-10.521l-13.048-13.048l-0.002,34.341
	c0.922,0.455,1.791,1.063,2.559,1.828c3.778,3.777,3.778,9.898,0,13.683c-3.779,3.777-9.904,3.777-13.679,0
	c-3.778-3.784-3.778-9.905,0-13.683c0.934-0.933,2.014-1.638,3.167-2.11V36.935c-1.153-0.472-2.231-1.172-3.167-2.111
	c-2.862-2.86-3.551-7.06-2.083-10.576L599.81,9.935l-37.792,37.79c-3.175,3.177-3.175,8.325,0,11.5l55.117,55.114
	c3.174,3.174,8.32,3.174,11.499,0l54.858-54.858C686.666,56.305,686.666,51.154,683.491,47.98z"/>
<g>
	<path fill="#00F8DF" d="M1335.507-17.129c-34.243,0-61.999,27.757-61.999,61.999s27.757,61.999,61.999,61.999
		s61.999-27.757,61.999-61.999S1369.75-17.129,1335.507-17.129z M1364.938,60.073c-21.201,21.201-59.07,14.436-59.07,14.436
		s-6.835-37.799,14.436-59.07c11.786-11.786,31.314-11.298,43.658,0.976C1376.305,28.69,1376.724,48.287,1364.938,60.073
		L1364.938,60.073z"/>
	<polygon fill="#00F8DF" points="1342.62,19.205 1336.553,31.689 1324.069,37.756 1336.553,43.824 1342.62,56.307 1348.688,43.824 
		1361.172,37.756 1348.688,31.689 	"/>
</g>
</svg>
