<?xml version="1.0" encoding="utf-8"?>
<!-- Generator: Adobe Illustrator 24.2.1, SVG Export Plug-In . SVG Version: 6.00 Build 0)  -->
<svg version="1.1" id="Layer_1" xmlns="http://www.w3.org/2000/svg" xmlns:xlink="http://www.w3.org/1999/xlink" x="0px" y="0px"
	 width="126px" height="126px" viewBox="0 0 126 126" enable-background="new 0 0 126 126" xml:space="preserve">
<path fill="#00F8DF" d="M126,15.142C126,6.779,119.221,0,110.858,0H15.142C6.779,0,0,6.779,0,15.142v95.715
	C0,119.221,6.779,126,15.142,126h95.716c8.363,0,15.142-6.779,15.142-15.143C126,110.857,126,15.142,126,15.142z M57,98.54
	c0,3.807-3.286,6.46-7.093,6.46H22.563C18.756,105,16,102.347,16,98.54V22.23c0-3.808,2.756-7.23,6.563-7.23h27.344
	C53.714,15,57,18.422,57,22.23V98.54z M112,32.084V63.97c0,3.807-2.936,7.03-6.744,7.03h-27.33C74.118,71,71,67.776,71,63.97V21.866
	C71,18.058,74.118,15,77.926,15h27.33c3.808,0,6.744,3.058,6.744,6.866V32.084z"/>
</svg>
