<?xml version="1.0" encoding="utf-8"?>
<!-- Generator: Adobe Illustrator 24.2.1, SVG Export Plug-In . SVG Version: 6.00 Build 0)  -->
<svg version="1.1" id="Layer_1" xmlns="http://www.w3.org/2000/svg" xmlns:xlink="http://www.w3.org/1999/xlink" x="0px" y="0px"
	 width="731.421px" height="595.279px" viewBox="0 0 731.421 595.279" enable-background="new 0 0 731.421 595.279"
	 xml:space="preserve">
<path fill="#09C4DD" d="M656.677,148.153c0,6.674,0,13.348,0,20.021c0,198.872-150.822,427.106-427.106,427.106
	c-84.087,0-162.835-25.359-229.57-68.069c12.013,1.334,24.025,2.669,36.037,2.669c70.74,0,134.806-24.024,186.859-64.065
	c-65.4-1.335-121.458-44.046-140.145-104.107c9.343,1.334,18.687,2.669,28.029,2.669c13.347,0,26.694-1.335,40.041-5.339
	C81.418,345.69,30.698,284.293,30.698,212.219v-1.335c20.021,10.678,44.046,17.352,68.07,18.686
	c-40.04-26.694-66.735-73.409-66.735-125.462c0-28.029,8.009-53.389,20.021-76.079c73.409,90.761,184.19,149.487,308.317,156.161
	c-2.669-10.678-4.004-22.689-4.004-34.702C356.367,66.736,424.438,0,507.19,0c42.711,0,82.752,18.686,109.446,48.049
	c34.702-6.673,66.735-18.686,94.765-36.037c-10.678,34.703-34.703,64.066-66.736,82.752c30.698-4.004,58.728-12.012,86.757-24.024
	C712.735,100.103,686.04,126.797,656.677,148.153z"/>
</svg>
