<?xml version="1.0" encoding="utf-8"?>
<!-- Generator: Adobe Illustrator 24.2.1, SVG Export Plug-In . SVG Version: 6.00 Build 0)  -->
<svg version="1.1" id="Layer_1" xmlns="http://www.w3.org/2000/svg" xmlns:xlink="http://www.w3.org/1999/xlink" x="0px" y="0px"
	 width="124px" height="124px" viewBox="0 0 124 124" enable-background="new 0 0 124 124" xml:space="preserve">
<g id="original_1_">
	<path fill="#00F8DF" d="M97.24,78.71C92.9,78.76,89.1,81,85.89,83c-6,3.71-9,3.47-9,3.47l-0.1-0.17
		c-0.41-0.67,1.92-6.68-0.69-13.84c-2.82-7.83-7.3-9.72-6.94-10.32c1.53-2.59,5.36-6.7,6.89-14.36c0.91-4.64,0.67-12.28-1.39-16.28
		c-0.38-0.74-3.78,1.24-3.78,1.24s-3.18-7.09-4.07-7.66c-2.87-1.84-6,7.61-6,7.61c-4.395-0.431-8.735,1.237-11.71,4.5
		c-1.088,1.048-2.407,1.825-3.85,2.27c-0.41,0.14-0.91,0.12-2.15,3.47c-1.9,5.07,3.24,10.81,3.24,10.81s-6.13,4.33-8.4,9.72
		c-1.516,3.695-2.117,7.703-1.75,11.68c0,0-4.36,3.78-4.64,7.68c-0.26,2.732,0.36,5.475,1.77,7.83
		c0.454,0.97,1.609,1.389,2.58,0.935c0.017-0.008,0.034-0.016,0.05-0.025c0,0-2.9,3.38-0.19,4.81c2.47,1.29,6.63,2,8.83-0.19
		c1.6-1.6,1.92-5.17,2.51-6.63c0.14-0.34,0.62,0.57,1.08,1c0.424,0.371,0.879,0.706,1.36,1c0,0-3.9,1.68-2.3,5.51
		c0.53,1.27,2.42,2.08,5.51,2.06c1.15,0,13.76-0.72,17.12-1.53c1.016-0.161,1.941-0.679,2.61-1.46c5.456-1.623,10.667-3.978,15.49-7
		c4.74-3.09,6.68-3.93,10.51-4.84C101.64,83.54,101.43,78.64,97.24,78.71z"/>
	<path fill="#00F8DF" d="M62,0C27.758,0,0,27.758,0,62s27.758,62,62,62s62-27.758,62-62S96.242,0,62,0z M99.3,87.83
		c-3.35,0.81-4.91,1.44-9.41,4.36c-4.858,3.049-10.087,5.463-15.56,7.18c-1.058,0.868-2.305,1.474-3.64,1.77
		c-3.81,0.93-16.88,1.63-17.91,1.63h-0.24c-4,0-6.27-1.24-7.49-2.54c-3.4,1.7-7.8,1-11-0.69c-1.553-0.761-2.662-2.204-3-3.9
		c-0.119-0.682-0.119-1.378,0-2.06c-0.295-0.307-0.559-0.642-0.79-1c-1.817-3.023-2.609-6.551-2.26-10.06
		c0.29-3.73,2.87-7.06,4.55-8.83c-0.14-3.998,0.562-7.981,2.06-11.69c1.609-3.45,3.934-6.518,6.82-9c-1.65-2.78-3.33-7.06-1.7-11.42
		c1.17-3.11,2.13-4.84,4.24-5.58l0,0c0.921-0.266,1.777-0.722,2.51-1.34c3.077-3.343,7.325-5.37,11.86-5.66
		c0.19-0.48,0.41-1,0.65-1.46c1.6-3.4,3.3-5.31,5.29-6c1.462-0.547,3.098-0.361,4.4,0.5c0.65,0.43,1.48,1,3.9,6
		c0.917-0.328,1.913-0.363,2.85-0.1c1.034,0.282,1.902,0.986,2.39,1.94c2.47,4.74,2.8,13.19,1.72,18.62
		c-0.958,4.808-2.951,9.349-5.84,13.31c2.584,2.688,4.553,5.906,5.77,9.43c1.19,3.334,1.67,6.88,1.41,10.41
		c1.075-0.515,2.117-1.096,3.12-1.74c3.06-1.89,7.68-4.74,13.19-4.81c3.468-0.232,6.525,2.257,7,5.7
		C104.623,84.055,102.503,87.104,99.3,87.83z"/>
</g>
</svg>
